<svg xmlns="http://www.w3.org/2000/svg" xmlns:xlink="http://www.w3.org/1999/xlink" width="0" height="0" style="position:absolute">
	
		<symbol id="cms-icon-alert-triangle" viewBox="0 0 24 24">
			<title>Resources/icons/alert-triangle</title><defs><path d="M9.493 3.386a2.872 2.872 0 0 1 4.913 0l8.11 13.539a2.87 2.87 0 0 1-2.465 4.304H3.837a2.87 2.87 0 0 1-2.446-4.318L9.493 3.386zM3.04 17.88a.957.957 0 0 0 .808 1.435H20.04a.957.957 0 0 0 .826-1.422l-8.1-13.52a.957.957 0 0 0-1.634-.002L3.04 17.882zm7.953-9.087a.957.957 0 0 1 1.913 0v3.826a.957.957 0 1 1-1.913 0V8.794zm.28 7.372a.957.957 0 1 1 1.353-1.353.957.957 0 0 1-1.353 1.353z" id="a"></path></defs><g fill="none" fill-rule="evenodd"><mask id="b" fill="#fff"><use xlink:href="#a"></use></mask><use fill="#000" fill-rule="nonzero" xlink:href="#a"></use><path d="M0 0h24v24H0z" mask="url(#b)" fill="#000"></path></g>
		</symbol>
	
		<symbol id="cms-icon-align-bottom" viewBox="0 0 24 24">
			<title>Resources/icons/align-bottom</title><defs><path d="M12.667 18.333V3h4.444v15.333h-4.444zm-5.556 0v-8.222h4.445v8.222H7.11zM4 21v-1.556h16.222V21H4z" id="a"></path></defs><g fill="none" fill-rule="evenodd"><mask id="b" fill="#fff"><use xlink:href="#a"></use></mask><use fill="#000" xlink:href="#a"></use><path d="M0 0h24v24H0z" mask="url(#b)" fill="#000"></path></g>
		</symbol>
	
		<symbol id="cms-icon-align-center" viewBox="0 0 24 24">
			<title>Resources/icons/align-center</title><defs><path id="a" d="M22.286 11.087h-3.699V3h-5.284v8.087h-1.32V7.174H6.698v3.913H3v1.826h3.699v3.913h5.283v-3.913h1.321V21h5.284v-8.087h3.699z"></path></defs><g fill="none" fill-rule="evenodd"><mask id="b" fill="#fff"><use xlink:href="#a"></use></mask><use fill="#000" xlink:href="#a"></use><path d="M0 0h24v24H0z" mask="url(#b)" fill="#000"></path></g>
		</symbol>
	
		<symbol id="cms-icon-align-top" viewBox="0 0 24 24">
			<title>Resources/icons/align-top</title><defs><path d="M12.667 18.333V3h4.444v15.333h-4.444zm-5.556 0v-8.222h4.445v8.222H7.11zM4 21v-1.556h16.222V21H4z" id="a"></path></defs><g fill="none" fill-rule="evenodd"><mask id="b" fill="#fff"><use xlink:href="#a"></use></mask><use fill="#000" transform="matrix(1 0 0 -1 0 24)" xlink:href="#a"></use><path d="M0 0h24v24H0z" mask="url(#b)" fill="#000"></path></g>
		</symbol>
	
		<symbol id="cms-icon-arrow-up" viewBox="0 0 24 24">
			<path d="M11 6.4l-4.3 4.3c-.4.4-1 .4-1.4 0-.4-.4-.4-1 0-1.4l6-6c.4-.4 1-.4 1.4 0l6 6c.4.4.4 1 0 1.4-.4.4-1 .4-1.4 0L13 6.4V20c0 .6-.4 1-1 1s-1-.4-1-1V6.4z"></path>
		</symbol>
	
		<symbol id="cms-icon-article" viewBox="0 0 24 24">
			<title>Resources/icons/article</title><defs><path d="M19 9h-5a1 1 0 0 1-1-1V3H6a1 1 0 0 0-1 1v16a1 1 0 0 0 1 1h12a1 1 0 0 0 1-1V9h1a1 1 0 0 0 1-1v12a3 3 0 0 1-3 3H6a3 3 0 0 1-3-3V4a3 3 0 0 1 3-3h8a1 1 0 0 1 .707.293l6 6a1 1 0 0 1 .217.324zm-4-4.586V7h2.586L15 4.414zM16 12a1 1 0 0 1 0 2H8a1 1 0 0 1 0-2h8zm0 4a1 1 0 0 1 0 2H8a1 1 0 0 1 0-2h8zm-6-8a1 1 0 0 1 0 2H8a1 1 0 1 1 0-2h2z" id="a"></path></defs><g fill="none" fill-rule="evenodd"><mask id="b" fill="#fff"><use xlink:href="#a"></use></mask><use fill="#000" fill-rule="nonzero" xlink:href="#a"></use><path d="M0 0h24v24H0z" mask="url(#b)" fill="#000"></path></g>
		</symbol>
	
		<symbol id="cms-icon-asset" viewBox="0 0 24 24">
			<title>Resources/icons/asset</title><defs><path d="M13 21.146l7.445-3.723A1 1 0 0 0 21 16.53V7.377l-8 4v9.769zm-2 .005v-9.774l-8-4v9.149c-.003.38.21.729.547.899L11 21.15zM19.76 5.76l-7.315-3.657a.999.999 0 0 0-.887 0L4.241 5.76l7.76 3.88 7.758-3.88zM13.335.313l8 4A3 3 0 0 1 23 7v9.53a3 3 0 0 1-1.663 2.684l-8 4a3 3 0 0 1-2.684 0L2.65 19.212A2.997 2.997 0 0 1 1 16.519v-9.52a3 3 0 0 1 1.663-2.684L10.665.313a3 3 0 0 1 2.67 0z" id="a"></path></defs><g fill="none" fill-rule="evenodd"><mask id="b" fill="#fff"><use xlink:href="#a"></use></mask><use fill="#000" fill-rule="nonzero" xlink:href="#a"></use><path d="M0 0h24v24H0z" mask="url(#b)" fill="#000"></path></g>
		</symbol>
	
		<symbol id="cms-icon-blocks" viewBox="0 0 24 24">
			<title>Resources/icons/blocks</title><defs><path d="M4 4v5h5V4H4zM3 2h7a1 1 0 0 1 1 1v7a1 1 0 0 1-1 1H3a1 1 0 0 1-1-1V3a1 1 0 0 1 1-1zm11 0h7a1 1 0 0 1 1 1v7a1 1 0 0 1-1 1h-7a1 1 0 0 1-1-1V3a1 1 0 0 1 1-1zm1 7h5V4h-5v5zm-1 4h7a1 1 0 0 1 1 1v7a1 1 0 0 1-1 1h-7a1 1 0 0 1-1-1v-7a1 1 0 0 1 1-1zm1 7h5v-5h-5v5zM3 13h7a1 1 0 0 1 1 1v7a1 1 0 0 1-1 1H3a1 1 0 0 1-1-1v-7a1 1 0 0 1 1-1zm1 7h5v-5H4v5z" id="a"></path></defs><g fill="none" fill-rule="evenodd"><mask id="b" fill="#fff"><use xlink:href="#a"></use></mask><use fill="#000" fill-rule="nonzero" xlink:href="#a"></use><path d="M0 0h24v24H0z" mask="url(#b)" fill="#000"></path></g>
		</symbol>
	
		<symbol id="cms-icon-bold" viewBox="0 0 24 24">
			<title>Resources/icons/bold</title><defs><path d="M17.135 11.393a5.584 5.584 0 0 0 1.391-3.679c0-3.15-2.645-5.714-5.894-5.714H6v20h8.105C17.355 22 20 19.436 20 16.286c0-2.076-1.151-3.891-2.865-4.893zM9 5h3.333C13.803 5 15 6.346 15 8s-1.197 3-2.667 3H9V5zm5.09 14H9v-6h5.09c1.605 0 2.91 1.346 2.91 3s-1.305 3-2.91 3z" id="a"></path></defs><g fill="none" fill-rule="evenodd"><mask id="b" fill="#fff"><use xlink:href="#a"></use></mask><use fill="#000" xlink:href="#a"></use><path d="M0 0h24v24H0z" mask="url(#b)" fill="#000"></path></g>
		</symbol>
	
		<symbol id="cms-icon-calendar" viewBox="0 0 24 24">
			<title>Resources/icons/calendar</title><defs><path d="M20 9V6a1 1 0 0 0-1-1h-2v1a1 1 0 0 1-2 0V5H9v1a1 1 0 1 1-2 0V5H5a1 1 0 0 0-1 1v3h16zm0 2H4v9a1 1 0 0 0 1 1h14a1 1 0 0 0 1-1v-9zM9 3h6V2a1 1 0 0 1 2 0v1h2a3 3 0 0 1 3 3v14a3 3 0 0 1-3 3H5a3 3 0 0 1-3-3V6a3 3 0 0 1 3-3h2V2a1 1 0 1 1 2 0v1z" id="a"></path></defs><g fill="none" fill-rule="evenodd"><mask id="b" fill="#fff"><use xlink:href="#a"></use></mask><use fill="#000" fill-rule="nonzero" xlink:href="#a"></use><path d="M0 0h24v24H0z" mask="url(#b)" fill="#000"></path></g>
		</symbol>
	
		<symbol id="cms-icon-check" viewBox="0 0 24 24">
			<title>Resources/icons/check</title><defs><path d="M4.707 12.293a1 1 0 1 0-1.414 1.414l5 5a1 1 0 0 0 1.414 0l11-11a1 1 0 1 0-1.414-1.414L9 16.586l-4.293-4.293z" id="a"></path></defs><g fill="none" fill-rule="evenodd"><mask id="b" fill="#fff"><use xlink:href="#a"></use></mask><use fill="#000" fill-rule="nonzero" xlink:href="#a"></use><path d="M0 0h24v24H0z" mask="url(#b)" fill="#000"></path></g>
		</symbol>
	
		<symbol id="cms-icon-chevron-down" viewBox="0 0 24 24">
			<title>Resources/icons/chevron-down</title><defs><path d="M12 13.586L6.707 8.293a1 1 0 0 0-1.414 1.414l6 6a1 1 0 0 0 1.414 0l6-6a1 1 0 1 0-1.414-1.414L12 13.586z" id="a"></path></defs><g fill="none" fill-rule="evenodd"><mask id="b" fill="#fff"><use xlink:href="#a"></use></mask><use fill="#000" fill-rule="nonzero" xlink:href="#a"></use><path d="M0 0h24v24H0z" mask="url(#b)" fill="#000"></path></g>
		</symbol>
	
		<symbol id="cms-icon-chevron-right" viewBox="0 0 24 24">
			<title>Resources/icons/chevron-right</title><defs><path d="M13.586 12l-5.293 5.293a1 1 0 0 0 1.414 1.414l6-6a1 1 0 0 0 0-1.414l-6-6a1 1 0 0 0-1.414 1.414L13.586 12z" id="a"></path></defs><g fill="none" fill-rule="evenodd"><mask id="b" fill="#fff"><use xlink:href="#a"></use></mask><use fill="#000" fill-rule="nonzero" xlink:href="#a"></use><path d="M0 0h24v24H0z" mask="url(#b)" fill="#000"></path></g>
		</symbol>
	
		<symbol id="cms-icon-chevrons-left" viewBox="0 0 24 24">
			<path d="M7.4 12l4.3 4.3c.4.4.4 1 0 1.4-.4.4-1 .4-1.4 0l-5-5c-.4-.4-.4-1 0-1.4l5-5c.4-.4 1-.4 1.4 0 .4.4.4 1 0 1.4L7.4 12zm11.3-4.3L14.4 12l4.3 4.3c.4.4.4 1 0 1.4-.4.4-1 .4-1.4 0l-5-5c-.4-.4-.4-1 0-1.4l5-5c.4-.4 1-.4 1.4 0 .4.4.4 1 0 1.4z"></path>
		</symbol>
	
		<symbol id="cms-icon-circle" viewBox="0 0 24 24">
			<title>Resources/icons/circle</title><defs><path d="M12 23C5.925 23 1 18.075 1 12S5.925 1 12 1s11 4.925 11 11-4.925 11-11 11z" id="a"></path></defs><g fill="none" fill-rule="evenodd"><mask id="b" fill="#fff"><use xlink:href="#a"></use></mask><use fill="#000" fill-rule="nonzero" xlink:href="#a"></use><path d="M0 0h24v24H0z" mask="url(#b)" fill="#000"></path></g>
		</symbol>
	
		<symbol id="cms-icon-circle-o" viewBox="0 0 24 24">
			<title>Resources/icons/circle-o</title><defs><path d="M12 23C5.925 23 1 18.075 1 12S5.925 1 12 1s11 4.925 11 11-4.925 11-11 11zm0-2a9 9 0 1 0 0-18 9 9 0 0 0 0 18z" id="a"></path></defs><g fill="none" fill-rule="evenodd"><mask id="b" fill="#fff"><use xlink:href="#a"></use></mask><use fill="#000" fill-rule="nonzero" xlink:href="#a"></use><path d="M0 0h24v24H0z" mask="url(#b)" fill="#000"></path></g>
		</symbol>
	
		<symbol id="cms-icon-clock" viewBox="0 0 24 24">
			<title>Resources/icons/clock</title><defs><path d="M12 23C5.925 23 1 18.075 1 12S5.925 1 12 1s11 4.925 11 11-4.925 11-11 11zm0-2a9 9 0 1 0 0-18 9 9 0 0 0 0 18zm1-15v5.586l2.707 2.707a1 1 0 0 1-1.414 1.414l-3-3A1 1 0 0 1 11 12V6a1 1 0 0 1 2 0z" id="a"></path></defs><g fill="none" fill-rule="evenodd"><mask id="b" fill="#fff"><use xlink:href="#a"></use></mask><use fill="#000" fill-rule="nonzero" xlink:href="#a"></use><path d="M0 0h24v24H0z" mask="url(#b)" fill="#000"></path></g>
		</symbol>
	
		<symbol id="cms-icon-code" viewBox="0 0 24 24">
			<title>Resources/icons/code</title><defs><path d="M18.006 9.001a6 6 0 0 1 0 12H9.007a9 9 0 1 1 8.48-12h.52zm0 2h-1.26a1 1 0 0 1-.968-.75 7 7 0 1 0-6.772 8.75h9a4 4 0 1 0 0-8z" id="a"></path></defs><g fill="none" fill-rule="evenodd"><mask id="b" fill="#fff"><use xlink:href="#a"></use></mask><use fill="#000" fill-rule="nonzero" xlink:href="#a"></use><path d="M0 0h24v24H0z" transform="translate(0 -1)" mask="url(#b)" fill="#000"></path></g>
		</symbol>
	
		<symbol id="cms-icon-cog" viewBox="0 0 24 24">
			<title>Resources/icons/cog</title><defs><path d="M21.322 10.306l-2.564-.513a6.975 6.975 0 0 0-.418-1.01l1.45-2.175a.844.844 0 0 0-.105-1.065l-1.227-1.227a.843.843 0 0 0-1.065-.105l-2.176 1.45a7.101 7.101 0 0 0-1.009-.418l-.513-2.563a.845.845 0 0 0-.828-.68h-1.733a.845.845 0 0 0-.828.678l-.513 2.567a7.1 7.1 0 0 0-1.004.42L6.608 4.212a.844.844 0 0 0-1.065.106L4.316 5.544a.844.844 0 0 0-.105 1.065L5.664 8.79a7.1 7.1 0 0 0-.42 1.004l-2.567.513a.84.84 0 0 0-.677.826v1.733c0 .402.284.749.678.828l2.567.513a7.1 7.1 0 0 0 .42 1.004l-1.453 2.181a.844.844 0 0 0 .106 1.065l1.226 1.227a.843.843 0 0 0 1.065.105l2.181-1.453a7.1 7.1 0 0 0 1.004.42l.513 2.567a.84.84 0 0 0 .826.677h1.733a.845.845 0 0 0 .828-.678l.513-2.567a7.1 7.1 0 0 0 1.004-.42l2.181 1.453a.845.845 0 0 0 1.065-.106l1.227-1.226a.844.844 0 0 0 .105-1.065l-1.453-2.181a7.1 7.1 0 0 0 .42-1.004l2.567-.513a.84.84 0 0 0 .677-.826v-1.733a.843.843 0 0 0-.678-.828zM12 15.684a3.684 3.684 0 1 1 0-7.368 3.684 3.684 0 0 1 0 7.368z" id="a"></path></defs><g fill="none" fill-rule="evenodd"><mask id="b" fill="#fff"><use xlink:href="#a"></use></mask><use fill="#000" xlink:href="#a"></use><path d="M0 0h24v24H0z" mask="url(#b)" fill="#000"></path></g>
		</symbol>
	
		<symbol id="cms-icon-cog-o" viewBox="0 0 24 24">
			<title>Resources/icons/cog-o</title><defs><path d="M20.299 8.715A.647.647 0 0 0 20.83 9H21a3 3 0 0 1 0 6h-.086a.65.65 0 0 0-.595.394.65.65 0 0 0 .118.719l.06.06a3 3 0 1 1-4.244 4.244l-.052-.052a.654.654 0 0 0-.727-.126.649.649 0 0 0-.394.591V21a3 3 0 0 1-6 0 .698.698 0 0 0-.484-.685.647.647 0 0 0-.709.122l-.06.06a3 3 0 1 1-4.244-4.244l.052-.052a.654.654 0 0 0 .126-.727.649.649 0 0 0-.591-.394H3a3 3 0 0 1 0-6 .698.698 0 0 0 .685-.484.647.647 0 0 0-.122-.709l-.06-.06a3 3 0 1 1 4.244-4.244l.052.052a.65.65 0 0 0 .717.13 1 1 0 0 1 .2-.064A.647.647 0 0 0 9 3.17V3a3 3 0 0 1 6 0v.086c.001.26.156.493.404.6a.647.647 0 0 0 .709-.123l.06-.06a3 3 0 1 1 4.244 4.244l-.052.052a.65.65 0 0 0-.13.717 1 1 0 0 1 .064.2zM9.129 5.672a2.655 2.655 0 0 1-2.736-.615l-.06-.06a1 1 0 1 0-1.416 1.416l.068.068c.757.774.967 1.932.554 2.864A2.657 2.657 0 0 1 3.09 11.08H3a1 1 0 0 0 0 2h.174a2.646 2.646 0 0 1 2.42 1.596 2.654 2.654 0 0 1-.537 2.931l-.06.06a1 1 0 1 0 1.416 1.416l.068-.068c.774-.757 1.932-.967 2.864-.554a2.657 2.657 0 0 1 1.735 2.449V21a1 1 0 0 0 2 0v-.174a2.646 2.646 0 0 1 1.596-2.42 2.654 2.654 0 0 1 2.931.537l.06.06a1 1 0 1 0 1.416-1.416l-.068-.068a2.65 2.65 0 0 1-.53-2.923A2.648 2.648 0 0 1 20.91 13H21a1 1 0 0 0 0-2h-.174a2.65 2.65 0 0 1-2.425-1.606 1 1 0 0 1-.073-.264 2.655 2.655 0 0 1 .615-2.737l.06-.06a1 1 0 1 0-1.416-1.416l-.068.068a2.646 2.646 0 0 1-2.913.534A2.651 2.651 0 0 1 13 3.09V3a1 1 0 0 0-2 0v.174a2.65 2.65 0 0 1-1.606 2.425 1 1 0 0 1-.264.073zM12 16a4 4 0 1 1 0-8 4 4 0 0 1 0 8zm0-2a2 2 0 1 0 0-4 2 2 0 0 0 0 4z" id="a"></path></defs><g fill="none" fill-rule="evenodd"><mask id="b" fill="#fff"><use xlink:href="#a"></use></mask><use fill="#000" fill-rule="nonzero" xlink:href="#a"></use><path d="M0 0h24v24H0z" transform="translate(0 -1)" mask="url(#b)" fill="#000"></path></g>
		</symbol>
	
		<symbol id="cms-icon-comment" viewBox="0 0 24 24">
			<title>Resources/icons/comment</title><defs><path d="M16.71 22.26l-3.554-5.243H2V4h20v13.017h-4.223L16.71 22.26zM4 15.086h9.619L15.729 18l.633-2.915H20V6H4v9.085z" id="a"></path></defs><g fill="none" fill-rule="evenodd"><mask id="b" fill="#fff"><use xlink:href="#a"></use></mask><use fill="#000" xlink:href="#a"></use><path d="M0 0h24v24H0z" mask="url(#b)" fill="#000"></path></g>
		</symbol>
	
		<symbol id="cms-icon-dashboard" viewBox="0 0 24 24">
			<title>Resources/icons/dashboard</title><defs><path d="M12 24C5.383 24 0 18.617 0 12S5.383 0 12 0s12 5.383 12 12-5.383 12-12 12zm0-22.5C6.21 1.5 1.5 6.21 1.5 12S6.21 22.5 12 22.5 22.5 17.79 22.5 12 17.79 1.5 12 1.5zM5.25 12.75h-1.5a.75.75 0 1 1 0-1.5h1.5a.75.75 0 1 1 0 1.5zm15 0h-1.5a.75.75 0 1 1 0-1.5h1.5a.75.75 0 1 1 0 1.5zm-8.25 0a.748.748 0 0 1-.53-1.28l5.785-5.785a.749.749 0 1 1 1.06 1.06l-5.785 5.786a.744.744 0 0 1-.53.219zM12 6a.75.75 0 0 1-.75-.75v-1.5a.75.75 0 1 1 1.5 0v1.5A.75.75 0 0 1 12 6zM7.227 7.977a.748.748 0 0 1-.53-.22l-1.06-1.06a.749.749 0 1 1 1.06-1.06l1.06 1.06a.749.749 0 0 1-.53 1.28z" id="a"></path></defs><g fill="none" fill-rule="evenodd"><mask id="b" fill="#fff"><use xlink:href="#a"></use></mask><use fill="#000" xlink:href="#a"></use><path d="M0 0h24v24H0z" mask="url(#b)" fill="#000"></path></g>
		</symbol>
	
		<symbol id="cms-icon-divio-d" viewBox="0 0 24 24">
			<title>Resources/icons/divio-d</title><defs><path d="M4.001 6v12.71H4h13.113c1.26 0 1.913-.417 2.382-.827.472-.41.917-.996.917-2.176V9.005c0-1.2-.442-1.79-.903-2.19C19.05 6.414 18.392 6 17.113 6H4.001V6z" id="a"></path></defs><g fill="none" fill-rule="evenodd"><mask id="b" fill="#fff"><use xlink:href="#a"></use></mask><use fill="#000" xlink:href="#a"></use><path d="M0 0h24v24H0z" mask="url(#b)" fill="#000"></path></g>
		</symbol>
	
		<symbol id="cms-icon-doctor" viewBox="0 0 24 24">
			<title>Resources/icons/doctor</title><defs><path d="M6.102 2.025V.5H2.816v5.746a5.49 5.49 0 0 0 1.386 3.64 5.664 5.664 0 0 0 3.477 1.85v6.306a5.475 5.475 0 0 0 2.793 4.756 5.672 5.672 0 0 0 5.588 0 5.476 5.476 0 0 0 2.793-4.756v-3.406c1.41-.383 2.316-1.73 2.12-3.155-.196-1.425-1.433-2.488-2.896-2.488-1.462 0-2.7 1.063-2.896 2.488-.196 1.425.71 2.772 2.12 3.155v3.406a3.956 3.956 0 0 1-2.017 3.435 4.099 4.099 0 0 1-4.035 0 3.955 3.955 0 0 1-2.018-3.435v-6.305a5.667 5.667 0 0 0 3.461-1.858 5.486 5.486 0 0 0 1.376-3.633V.5h-3.285v1.525h1.733v4.221c0 1.43-.776 2.752-2.037 3.468a4.137 4.137 0 0 1-4.074 0 3.995 3.995 0 0 1-2.037-3.468v-4.22h1.734zM16.15 11.41a1.213 1.213 0 1 1 2.426.002 1.213 1.213 0 0 1-2.426-.002z" id="a"></path></defs><g fill="none" fill-rule="evenodd"><mask id="b" fill="#fff"><use xlink:href="#a"></use></mask><use fill="#000" xlink:href="#a"></use><path d="M0 0h24v24H0z" transform="translate(0 -1)" mask="url(#b)" fill="#000"></path></g>
		</symbol>
	
		<symbol id="cms-icon-edit" viewBox="0 0 24 24">
			<path d="M4 16.4V20h3.6l12-12L16 4.4l-12 12zM16.7 2.3l5 5c.4.4.4 1 0 1.4l-13 13c-.2.2-.4.3-.7.3H3c-.6 0-1-.4-1-1v-5c0-.3.1-.5.3-.7l13-13c.4-.4 1-.4 1.4 0z"></path>
		</symbol>
	
		<symbol id="cms-icon-edit-2" viewBox="0 0 24 24">
			<title>Resources/icons/edit-2</title><defs><path d="M14 3.414l-10 10V16h2.586l10-10L14 3.414zm.707-2.121l4 4a1 1 0 0 1 0 1.414l-11 11A1 1 0 0 1 7 18H3a1 1 0 0 1-1-1v-4a1 1 0 0 1 .293-.707l11-11a1 1 0 0 1 1.414 0zM3 23a1 1 0 0 1 0-2h18a1 1 0 0 1 0 2H3z" id="a"></path></defs><g fill="none" fill-rule="evenodd"><mask id="b" fill="#fff"><use xlink:href="#a"></use></mask><use fill="#000" fill-rule="nonzero" xlink:href="#a"></use><path d="M0 0h24v24H0z" mask="url(#b)" fill="#000"></path></g>
		</symbol>
	
		<symbol id="cms-icon-eye" viewBox="0 0 24 24">
			<title>Resources/icons/eye</title><defs><path d="M.106 11.553c.14-.281.404-.75.788-1.346a20.492 20.492 0 0 1 2.251-2.89C5.661 4.631 8.62 3 12 3c3.38 0 6.339 1.632 8.855 4.316a20.492 20.492 0 0 1 2.25 2.891c.385.596.649 1.065.79 1.346a1 1 0 0 1 0 .894c-.141.281-.405.75-.79 1.346a20.492 20.492 0 0 1-2.25 2.89C18.339 19.369 15.38 21 12 21c-3.38 0-6.339-1.632-8.855-4.316a20.492 20.492 0 0 1-2.25-2.891 15.188 15.188 0 0 1-.79-1.346 1 1 0 0 1 0-.894zm2.468 1.154c.575.89 1.254 1.781 2.03 2.61C6.777 17.631 9.255 19 12 19c2.745 0 5.224-1.368 7.395-3.684A18.513 18.513 0 0 0 21.86 12a18.513 18.513 0 0 0-2.464-3.316C17.224 6.368 14.745 5 12 5 9.255 5 6.776 6.368 4.605 8.684A18.513 18.513 0 0 0 2.14 12c.126.218.27.455.433.707zM12 16a4 4 0 1 1 0-8 4 4 0 0 1 0 8zm0-2a2 2 0 1 0 0-4 2 2 0 0 0 0 4z" id="a"></path></defs><g fill="none" fill-rule="evenodd"><mask id="b" fill="#fff"><use xlink:href="#a"></use></mask><use fill="#000" fill-rule="nonzero" xlink:href="#a"></use><path d="M0 0h24v24H0z" transform="translate(0 -1)" mask="url(#b)" fill="#000"></path></g>
		</symbol>
	
		<symbol id="cms-icon-flag" viewBox="0 0 24 24">
			<title>Resources/icons/flag</title><defs><path d="M3 15V3a1 1 0 0 1 .293-.707c.22-.22.614-.483 1.21-.721C5.407 1.21 6.564 1 8 1c1.417 0 2.383.276 4.371 1.072C14.133 2.776 14.917 3 16 3c1.189 0 2.094-.165 2.754-.428.341-.137.508-.249.539-.28C19.923 1.663 21 2.11 21 3v12a1 1 0 0 1-.293.707c-.22.22-.614.483-1.21.721-.903.362-2.06.572-3.497.572-1.417 0-2.383-.276-4.371-1.072C9.867 15.224 9.083 15 8 15c-1.189 0-2.094.165-2.754.428a4.094 4.094 0 0 0-.246.108V22a1 1 0 0 1-2 0v-7zm5-2c1.417 0 2.383.276 4.371 1.072 1.762.704 2.546.928 3.629.928 1.189 0 2.094-.165 2.754-.428.095-.039.177-.075.246-.108v-9.86c-.82.253-1.814.396-3 .396-1.417 0-2.383-.276-4.371-1.072C9.867 3.224 9.083 3 8 3c-1.189 0-2.094.165-2.754.428A4.094 4.094 0 0 0 5 3.536v9.86C5.82 13.143 6.814 13 8 13z" id="a"></path></defs><g fill="none" fill-rule="evenodd"><mask id="b" fill="#fff"><use xlink:href="#a"></use></mask><use fill="#000" fill-rule="nonzero" xlink:href="#a"></use><path d="M0 0h24v24H0z" mask="url(#b)" fill="#000"></path></g>
		</symbol>
	
		<symbol id="cms-icon-folder" viewBox="0 0 24 24">
			<title>Resources/icons/folder</title><defs><path d="M8.858 5h-3.97A.882.882 0 0 0 4 5.875v12.25c0 .483.398.875.889.875H19.11c.491 0 .889-.392.889-.875V8.5a.882.882 0 0 0-.889-.875h-8a.893.893 0 0 1-.74-.39L8.859 5zm2.72.7h7.695C20.779 5.7 22 6.909 22 8.4v9.9c0 1.491-1.221 2.7-2.727 2.7H4.727C3.221 21 2 19.791 2 18.3V5.7C2 4.209 3.221 3 4.727 3h4.546c.304 0 .588.15.756.4l1.548 2.3z" id="a"></path></defs><g fill="none" fill-rule="evenodd"><mask id="b" fill="#fff"><use xlink:href="#a"></use></mask><use fill="#000" fill-rule="nonzero" xlink:href="#a"></use><path d="M0 0h24v24H0z" mask="url(#b)" fill="#000"></path></g>
		</symbol>
	
		<symbol id="cms-icon-folder-filled" viewBox="0 0 24 24">
			<title>Resources/icons/folder-filled</title><defs><path d="M11.577 5.7h7.696C20.779 5.7 22 6.909 22 8.4v9.9c0 1.491-1.221 2.7-2.727 2.7H4.727C3.221 21 2 19.791 2 18.3V5.7C2 4.209 3.221 3 4.727 3h4.546c.304 0 .588.15.756.4l1.548 2.3z" id="a"></path></defs><g fill="none" fill-rule="evenodd"><mask id="b" fill="#fff"><use xlink:href="#a"></use></mask><use fill="#000" fill-rule="nonzero" xlink:href="#a"></use><path d="M0 0h24v24H0z" mask="url(#b)" fill="#000"></path></g>
		</symbol>
	
		<symbol id="cms-icon-forbidden" viewBox="0 0 24 24">
			<title>Resources/icons/forbidden</title><defs><path d="M4.968 6.382a9 9 0 0 0 12.65 12.65L4.968 6.382zm1.414-1.414l12.65 12.65a9 9 0 0 0-12.65-12.65zM12 23C5.925 23 1 18.075 1 12S5.925 1 12 1s11 4.925 11 11-4.925 11-11 11z" id="a"></path></defs><g fill="none" fill-rule="evenodd"><mask id="b" fill="#fff"><use xlink:href="#a"></use></mask><use fill="#000" fill-rule="nonzero" xlink:href="#a"></use><path d="M0 0h24v24H0z" mask="url(#b)" fill="#000"></path></g>
		</symbol>
	
		<symbol id="cms-icon-globe" viewBox="0 0 24 24">
			<title>Resources/icons/globe</title><defs><path d="M3.055 13a9.008 9.008 0 0 0 6.671 7.71A16.331 16.331 0 0 1 7.053 13H3.055zm0-2H7.05a16.3 16.3 0 0 1 2.676-7.71A9.008 9.008 0 0 0 3.055 11zm17.89 0a9.008 9.008 0 0 0-6.671-7.71A16.331 16.331 0 0 1 16.947 11h3.998zm0 2H16.95a16.3 16.3 0 0 1-2.676 7.71A9.008 9.008 0 0 0 20.945 13zm-11.89-2h5.887A14.3 14.3 0 0 0 12 3.55 14.288 14.288 0 0 0 9.055 11zm5.89 2H9.058A14.3 14.3 0 0 0 12 20.45 14.288 14.288 0 0 0 14.945 13zM12 23C5.925 23 1 18.075 1 12S5.925 1 12 1s11 4.925 11 11-4.925 11-11 11z" id="a"></path></defs><g fill="none" fill-rule="evenodd"><mask id="b" fill="#fff"><use xlink:href="#a"></use></mask><use fill="#000" fill-rule="nonzero" xlink:href="#a"></use><path d="M0 0h24v24H0z" transform="translate(0 -1)" mask="url(#b)" fill="#000"></path></g>
		</symbol>
	
		<symbol id="cms-icon-grid" viewBox="0 0 24 24">
			<title>Resources/icons/grid</title><defs><path d="M4 4v5h5V4H4zM3 2h7a1 1 0 0 1 1 1v7a1 1 0 0 1-1 1H3a1 1 0 0 1-1-1V3a1 1 0 0 1 1-1zm11 0h7a1 1 0 0 1 1 1v7a1 1 0 0 1-1 1h-7a1 1 0 0 1-1-1V3a1 1 0 0 1 1-1zm1 7h5V4h-5v5zm-1 4h7a1 1 0 0 1 1 1v7a1 1 0 0 1-1 1h-7a1 1 0 0 1-1-1v-7a1 1 0 0 1 1-1zm1 7h5v-5h-5v5zM3 13h7a1 1 0 0 1 1 1v7a1 1 0 0 1-1 1H3a1 1 0 0 1-1-1v-7a1 1 0 0 1 1-1zm1 7h5v-5H4v5z" id="a"></path></defs><g fill="none" fill-rule="evenodd"><mask id="b" fill="#fff"><use xlink:href="#a"></use></mask><use fill="#000" fill-rule="nonzero" xlink:href="#a"></use><path d="M0 0h24v24H0z" mask="url(#b)" fill="#000"></path></g>
		</symbol>
	
		<symbol id="cms-icon-heartbeat" viewBox="0 0 24 24">
			<title>Resources/icons/heartbeat</title><defs><path d="M15 17.838L9.949 2.684c-.304-.912-1.594-.912-1.898 0L5.28 11H2a1 1 0 0 0 0 2h4a1 1 0 0 0 .949-.684L9 6.162l5.051 15.154c.304.912 1.594.912 1.898 0L18.72 13H22a1 1 0 0 0 0-2h-4a1 1 0 0 0-.949.684L15 17.838z" id="a"></path></defs><g fill="none" fill-rule="evenodd"><mask id="b" fill="#fff"><use xlink:href="#a"></use></mask><use fill="#000" fill-rule="nonzero" xlink:href="#a"></use><path d="M0 0h24v24H0z" transform="translate(0 -1)" mask="url(#b)" fill="#000"></path></g>
		</symbol>
	
		<symbol id="cms-icon-help" viewBox="0 0 24 24">
			<title>Resources/icons/help</title><defs><path d="M12 24C5.37 24 0 18.63 0 12S5.37 0 12 0s12 5.37 12 12-5.37 12-12 12zm0-9.391c-.51 0-.925-.402-.925-.893V12.42c0-.491.416-.893.925-.893 1.017 0 1.803-.804 1.803-1.74 0-.982-.833-1.741-1.803-1.741-1.017 0-1.803.804-1.803 1.74 0 .493-.415.894-.924.894-.51 0-.925-.401-.925-.893 0-1.964 1.665-3.527 3.652-3.527 2.034 0 3.652 1.608 3.652 3.527 0 1.651-1.156 3.036-2.727 3.438v.491c0 .49-.416.892-.925.892zm.52 3.13c-.26 0-.52-.106-.728-.32a1.062 1.062 0 0 1-.314-.744c0-.266.104-.532.314-.744.364-.372 1.095-.372 1.46 0 .207.212.313.478.313.744s-.104.532-.313.744c-.21.214-.47.32-.731.32zM12 1.868A10.123 10.123 0 0 0 1.868 12c0 5.603 4.576 10.132 10.132 10.132 5.603 0 10.132-4.576 10.132-10.132A10.123 10.123 0 0 0 12 1.868z" id="a"></path></defs><g fill="none" fill-rule="evenodd"><mask id="b" fill="#fff"><use xlink:href="#a"></use></mask><use fill="#000" xlink:href="#a"></use><path d="M0 0h24v24H0z" mask="url(#b)" fill="#000"></path></g>
		</symbol>
	
		<symbol id="cms-icon-history" viewBox="0 0 24 24">
			<title>Resources/icons/history</title><defs><path d="M3.567 15.323a10 10 0 1 0 2.366-10.4l-4.618 4.34a1 1 0 1 0 1.37 1.457l4.64-4.36a8.01 8.01 0 0 1 9.544-1.361 8 8 0 1 1-11.416 9.66 1 1 0 1 0-1.886.664zM3 8.991v-5a1 1 0 1 0-2 0v6a1 1 0 0 0 1 1h6a1 1 0 0 0 0-2H3zM13 6a1 1 0 0 0-2 0v6a1 1 0 0 0 .293.707l3 3a1 1 0 0 0 1.414-1.414L13 11.586V6z" id="a"></path></defs><g fill="none" fill-rule="evenodd"><mask id="b" fill="#fff"><use xlink:href="#a"></use></mask><use fill="#000" fill-rule="nonzero" xlink:href="#a"></use><path d="M0 0h24v24H0z" mask="url(#b)" fill="#000"></path></g>
		</symbol>
	
		<symbol id="cms-icon-image" viewBox="0 0 24 24">
			<title>Resources/icons/image</title><defs><path d="M20 12.586V5a1 1 0 0 0-1-1H5a1 1 0 0 0-1 1v14a1 1 0 0 0 .65.937L15.292 9.293a1 1 0 0 1 1.414 0L20 12.586zm0 2.828l-4-4L7.414 20H19a1 1 0 0 0 1-1v-3.586zM5 2h14a3 3 0 0 1 3 3v14a3 3 0 0 1-3 3H5a3 3 0 0 1-3-3V5a3 3 0 0 1 3-3zm3.5 9a2.5 2.5 0 1 1 0-5 2.5 2.5 0 0 1 0 5zm0-2a.5.5 0 1 0 0-1 .5.5 0 0 0 0 1z" id="a"></path></defs><g fill="none" fill-rule="evenodd"><mask id="b" fill="#fff"><use xlink:href="#a"></use></mask><use fill="#000" fill-rule="nonzero" xlink:href="#a"></use><path d="M0 0h24v24H0z" mask="url(#b)" fill="#000"></path></g>
		</symbol>
	
		<symbol id="cms-icon-italic" viewBox="0 0 24 24">
			<title>Resources/icons/italic</title><defs><path d="M19.667 3.304c0 .72-.617 1.305-1.376 1.305h-1.804L9.217 19.39h1.438c.76 0 1.375.585 1.375 1.305 0 .719-.614 1.304-1.375 1.304h-6.28C3.617 22 3 21.415 3 20.696c0-.72.617-1.305 1.375-1.305H6.18L13.45 4.61h-1.438c-.761 0-1.375-.585-1.375-1.305 0-.719.614-1.304 1.375-1.304h6.28c.758 0 1.375.585 1.375 1.304z" id="a"></path></defs><g fill="none" fill-rule="evenodd"><mask id="b" fill="#fff"><use xlink:href="#a"></use></mask><use fill="#000" xlink:href="#a"></use><path d="M0 0h24v24H0z" mask="url(#b)" fill="#000"></path></g>
		</symbol>
	
		<symbol id="cms-icon-layers" viewBox="0 0 24 24">
			<title>Resources/icons/layers</title><defs><path d="M11.553 1.106a1 1 0 0 1 .894 0l10 5a1 1 0 0 1 0 1.788l-10 5a1 1 0 0 1-.894 0l-10-5a1 1 0 0 1 0-1.788l10-5zM12 3.118L4.236 7 12 10.882 19.764 7 12 3.118zM2.447 16.106L12 20.882l9.553-4.776a1 1 0 0 1 .894 1.788l-10 5a1 1 0 0 1-.894 0l-10-5a1 1 0 0 1 .894-1.788zm0-5L12 15.882l9.553-4.776a1 1 0 0 1 .894 1.788l-10 5a1 1 0 0 1-.894 0l-10-5a1 1 0 0 1 .894-1.788z" id="a"></path></defs><g fill="none" fill-rule="evenodd"><mask id="b" fill="#fff"><use xlink:href="#a"></use></mask><use fill="#000" fill-rule="nonzero" xlink:href="#a"></use><path d="M0 0h24v24H0z" mask="url(#b)" fill="#000"></path></g>
		</symbol>
	
		<symbol id="cms-icon-layout" viewBox="0 0 24 24">
			<title>Resources/icons/layout</title><defs><path d="M10 20h9a1 1 0 0 0 1-1v-9H10v10zm-2 0V10H4v9a1 1 0 0 0 1 1h3zM20 8V5a1 1 0 0 0-1-1H5a1 1 0 0 0-1 1v3h16zM5 2h14a3 3 0 0 1 3 3v14a3 3 0 0 1-3 3H5a3 3 0 0 1-3-3V5a3 3 0 0 1 3-3z" id="a"></path></defs><g fill="none" fill-rule="evenodd"><mask id="b" fill="#fff"><use xlink:href="#a"></use></mask><use fill="#000" fill-rule="nonzero" xlink:href="#a"></use><path d="M0 0h24v24H0z" mask="url(#b)" fill="#000"></path></g>
		</symbol>
	
		<symbol id="cms-icon-list" viewBox="0 0 24 24">
			<title>Resources/icons/list</title><defs><path d="M21.166 7h-10c-.833 0-.833 0-.833.833v.833c0 .834 0 .834.833.834h10C22 9.5 22 9.5 22 8.666v-.833c0-.834 0-.834-.834-.834zm0 7.5h-10c-.833 0-.833 0-.833.833v.833c0 .834 0 .834.833.834h10C22 17 22 17 22 16.166v-.834c0-.833 0-.833-.834-.833zm0 5h-10c-.833 0-.833 0-.833.833v.833c0 .834 0 .834.833.834h10C22 22 22 22 22 21.166v-.834c0-.833 0-.833-.834-.833zm0-17.5C22 2 22 2 22 2.832v.833c0 .834 0 .834-.834.834h-10c-.833 0-.833 0-.833-.834v-.833c0-.834 0-.834.833-.834h10zM5.5 21a2.5 2.5 0 1 1 0-5 2.5 2.5 0 0 1 0 5zm0-13a2.5 2.5 0 1 1 0-5 2.5 2.5 0 0 1 0 5z" id="a"></path></defs><g fill="none" fill-rule="evenodd"><mask id="b" fill="#fff"><use xlink:href="#a"></use></mask><use fill="#000" xlink:href="#a"></use><path d="M0 0h24v24H0z" mask="url(#b)" fill="#000"></path></g>
		</symbol>
	
		<symbol id="cms-icon-menu" viewBox="0 0 24 24">
			<title>Resources/icons/menu</title><defs><path d="M6 7a1 1 0 1 1 0-2h13a1 1 0 0 1 0 2H6zm0 6a1 1 0 0 1 0-2h13a1 1 0 0 1 0 2H6zm0 6a1 1 0 0 1 0-2h13a1 1 0 0 1 0 2H6z" id="a"></path></defs><g fill="none" fill-rule="evenodd"><mask id="b" fill="#fff"><use xlink:href="#a"></use></mask><use fill="#000" fill-rule="nonzero" xlink:href="#a"></use><path d="M0 0h24v24H0z" mask="url(#b)" fill="#000"></path></g>
		</symbol>
	
		<symbol id="cms-icon-minus" viewBox="0 0 24 24">
			<title>Resources/icons/minus</title><defs><path d="M5 13h14a1 1 0 0 0 0-2H5a1 1 0 0 0 0 2z" id="a"></path></defs><g fill="none" fill-rule="evenodd"><mask id="b" fill="#fff"><use xlink:href="#a"></use></mask><use fill="#000" fill-rule="nonzero" xlink:href="#a"></use><path d="M0 0h24v24H0z" mask="url(#b)" fill="#000"></path></g>
		</symbol>
	
		<symbol id="cms-icon-minus-square" viewBox="0 0 24 24">
			<title>Resources/icons/minus-square</title><defs><path d="M5 2h14a3 3 0 0 1 3 3v14a3 3 0 0 1-3 3H5a3 3 0 0 1-3-3V5a3 3 0 0 1 3-3zm0 2a1 1 0 0 0-1 1v14a1 1 0 0 0 1 1h14a1 1 0 0 0 1-1V5a1 1 0 0 0-1-1H5zm3 9a1 1 0 0 1 0-2h8a1 1 0 0 1 0 2H8z" id="a"></path></defs><g fill="none" fill-rule="evenodd"><mask id="b" fill="#fff"><use xlink:href="#a"></use></mask><use fill="#000" fill-rule="nonzero" xlink:href="#a"></use><path d="M0 0h24v24H0z" mask="url(#b)" fill="#000"></path></g>
		</symbol>
	
		<symbol id="cms-icon-monitor" viewBox="0 0 24 24">
			<title>Resources/icons/monitor</title><defs><path d="M13 18v2h3a1 1 0 0 1 0 2H8a1 1 0 0 1 0-2h3v-2H4a3 3 0 0 1-3-3V5a3 3 0 0 1 3-3h16a3 3 0 0 1 3 3v10a3 3 0 0 1-3 3h-7zM4 4a1 1 0 0 0-1 1v10a1 1 0 0 0 1 1h16a1 1 0 0 0 1-1V5a1 1 0 0 0-1-1H4z" id="a"></path></defs><g fill="none" fill-rule="evenodd"><mask id="b" fill="#fff"><use xlink:href="#a"></use></mask><use fill="#000" fill-rule="nonzero" xlink:href="#a"></use><path d="M0 0h24v24H0z" transform="translate(0 -1)" mask="url(#b)" fill="#000"></path></g>
		</symbol>
	
		<symbol id="cms-icon-more" viewBox="0 0 24 24">
			<title>Resources/icons/more</title><defs><path d="M6.444 12.222c0 1.223-1 2.222-2.222 2.222S2 13.444 2 12.222 3 10 4.222 10c1.223 0 2.222 1 2.222 2.222zM11.89 10c-1.223 0-2.222 1-2.222 2.222 0 1.223 1 2.222 2.222 2.222s2.222-1 2.222-2.222S13.111 10 11.89 10zm7.889 0c-1.223 0-2.222 1-2.222 2.222 0 1.223 1 2.222 2.222 2.222s2.222-1 2.222-2.222S21 10 19.778 10z" id="a"></path></defs><g fill="none" fill-rule="evenodd"><mask id="b" fill="#fff"><use xlink:href="#a"></use></mask><use fill="#000" xlink:href="#a"></use><path d="M0 0h24v24H0z" mask="url(#b)" fill="#000"></path></g>
		</symbol>
	
		<symbol id="cms-icon-numbered list" viewBox="0 0 24 24">
			<title>Resources/icons/numbered list</title><defs><path d="M21.166 7h-10c-.833 0-.833 0-.833.833v.833c0 .834 0 .834.833.834h10C22 9.5 22 9.5 22 8.666v-.833c0-.834 0-.834-.834-.834zm0 7.5h-10c-.833 0-.833 0-.833.833v.833c0 .834 0 .834.833.834h10C22 17 22 17 22 16.166v-.834c0-.833 0-.833-.834-.833zm0 5h-10c-.833 0-.833 0-.833.833v.833c0 .834 0 .834.833.834h10C22 22 22 22 22 21.166v-.834c0-.833 0-.833-.834-.833zm0-17.5h-10c-.833 0-.833 0-.833.833v.833c0 .834 0 .834.833.834h10C22 4.5 22 4.5 22 3.666v-.833c0-.834 0-.834-.834-.834zM6.584 2H3.25l-.416 2.083H4.5v5.416h2.084V2zM4.916 14.35C3.25 14.35 2 15.465 2 17.132h1.834c0-.584.333-1.117 1.083-1.117.675 0 1.034.43 1.025.954-.004.342-.237.659-1.2 1.467L2 20.749V22h5.834v-1.9H5.6l1.021-1.025c.938-.937 1.213-1.479 1.213-2.275 0-1.266-1.25-2.45-2.918-2.45z" id="a"></path></defs><g fill="none" fill-rule="evenodd"><mask id="b" fill="#fff"><use xlink:href="#a"></use></mask><use fill="#000" xlink:href="#a"></use><path d="M0 0h24v24H0z" mask="url(#b)" fill="#000"></path></g>
		</symbol>
	
		<symbol id="cms-icon-package" viewBox="0 0 24 24">
			<title>Resources/icons/package</title><defs><path d="M17.458 9.148a1.004 1.004 0 0 1-.02.01L13 11.377v9.769l7.445-3.723A1 1 0 0 0 21 16.53V7.377l-3.542 1.771zM9.24 3.261l7.76 3.88 2.758-1.38-7.315-3.657a.999.999 0 0 0-.887 0L9.241 3.26zM7.005 4.38L4.241 5.761l7.76 3.88 2.763-1.382-7.759-3.88zM6.47 2.411c.054-.033.111-.062.17-.085L10.665.313a3 3 0 0 1 2.67 0l8 4A3 3 0 0 1 23 7v9.53a3 3 0 0 1-1.663 2.684l-8 4a3 3 0 0 1-2.684 0L2.65 19.212A2.997 2.997 0 0 1 1 16.519v-9.52a3 3 0 0 1 1.663-2.684L6.469 2.41zM11 21.151v-9.774l-8-4v9.149c-.003.38.21.729.547.899L11 21.15z" id="a"></path></defs><g fill="none" fill-rule="evenodd"><mask id="b" fill="#fff"><use xlink:href="#a"></use></mask><use fill="#000" fill-rule="nonzero" xlink:href="#a"></use><path d="M0 0h24v24H0z" transform="translate(0 -1)" mask="url(#b)" fill="#000"></path></g>
		</symbol>
	
		<symbol id="cms-icon-page" viewBox="0 0 24 24">
			<title>Resources/icons/page</title><defs><path d="M19 10h-6a1 1 0 0 1-1-1V3H6a1 1 0 0 0-1 1v16a1 1 0 0 0 1 1h12a1 1 0 0 0 1-1V10h1a1 1 0 0 0 1-1v11a3 3 0 0 1-3 3H6a3 3 0 0 1-3-3V4a3 3 0 0 1 3-3h7a1 1 0 0 1 .707.293l7 7a1 1 0 0 1 .217.324zm-5-5.586V8h3.586L14 4.414z" id="a"></path></defs><g fill="none" fill-rule="evenodd"><mask id="b" fill="#fff"><use xlink:href="#a"></use></mask><use fill="#000" fill-rule="nonzero" xlink:href="#a"></use><path d="M0 0h24v24H0z" mask="url(#b)" fill="#000"></path></g>
		</symbol>
	
		<symbol id="cms-icon-people" viewBox="0 0 24 24">
			<title>Resources/icons/people</title><defs><path d="M18 21a1 1 0 0 1-2 0v-2a3 3 0 0 0-3-3H5a3 3 0 0 0-3 3v2a1 1 0 0 1-2 0v-2a5 5 0 0 1 5-5h8a5 5 0 0 1 5 5v2zm-9-9A5 5 0 1 1 9 2a5 5 0 0 1 0 10zm15 9a1 1 0 0 1-2 0v-2a3 3 0 0 0-2.25-2.902 1 1 0 1 1 .5-1.936A5 5 0 0 1 24 19v2zM15.752 4.099a1 1 0 1 1 .496-1.938 5 5 0 0 1 0 9.688 1 1 0 0 1-.496-1.938 3 3 0 0 0 0-5.812zM9 10a3 3 0 1 0 0-6 3 3 0 0 0 0 6z" id="a"></path></defs><g fill="none" fill-rule="evenodd"><mask id="b" fill="#fff"><use xlink:href="#a"></use></mask><use fill="#000" fill-rule="nonzero" xlink:href="#a"></use><path d="M0 0h24v24H0z" mask="url(#b)" fill="#000"></path></g>
		</symbol>
	
		<symbol id="cms-icon-plus" viewBox="0 0 24 24">
			<path d="M13 11h6c.6 0 1 .4 1 1s-.4 1-1 1h-6v6c0 .6-.4 1-1 1s-1-.4-1-1v-6H5c-.6 0-1-.4-1-1s.4-1 1-1h6V5c0-.6.4-1 1-1s1 .4 1 1v6z"></path>
		</symbol>
	
		<symbol id="cms-icon-plus-square" viewBox="0 0 24 24">
			<title>Resources/icons/plus-square</title><defs><path d="M13 11h3a1 1 0 0 1 0 2h-3v3a1 1 0 0 1-2 0v-3H8a1 1 0 0 1 0-2h3V8a1 1 0 0 1 2 0v3zM5 2h14a3 3 0 0 1 3 3v14a3 3 0 0 1-3 3H5a3 3 0 0 1-3-3V5a3 3 0 0 1 3-3zm0 2a1 1 0 0 0-1 1v14a1 1 0 0 0 1 1h14a1 1 0 0 0 1-1V5a1 1 0 0 0-1-1H5z" id="a"></path></defs><g fill="none" fill-rule="evenodd"><mask id="b" fill="#fff"><use xlink:href="#a"></use></mask><use fill="#000" fill-rule="nonzero" xlink:href="#a"></use><path d="M0 0h24v24H0z" mask="url(#b)" fill="#000"></path></g>
		</symbol>
	
		<symbol id="cms-icon-redo" viewBox="0 0 24 24">
			<path d="M5.4 5c-.2 0-.4.2-.4.4s.3.4.5.7l1.3 1.3C5.7 8.6 5 10.2 5 12c0 3.9 3.1 7 7 7 1.9 0 3.5-.7 4.8-1.9C18.1 15.8 19 14 19 12h-1.7c0 1.5-.7 2.9-1.7 3.9-.9.9-2.2 1.4-3.5 1.4-2.9 0-5.2-2.3-5.2-5.2 0-1.3.5-2.5 1.2-3.4l1.2 1.2c.2.2.4.4.6.4.2 0 .4-.2.4-.4V5.4c-.1-.4-.4-.4-.5-.4H5.4z"></path>
		</symbol>
	
		<symbol id="cms-icon-refresh" viewBox="0 0 24 24">
			<title>Resources/icons/refresh</title><defs><path d="M18.544 14.666a8 8 0 1 1-1.885-8.32l4.652 4.382a1 1 0 1 0 1.371-1.456l-4.63-4.36c-3.126-3.13-7.98-3.818-11.88-1.668A10 10 0 1 0 20.43 15.333a1 1 0 1 0-1.886-.667zM15.997 9a1 1 0 0 0 0 2h6a1 1 0 0 0 1-1V4a1 1 0 1 0-2 0v5h-5z" id="a"></path></defs><g fill="none" fill-rule="evenodd"><mask id="b" fill="#fff"><use xlink:href="#a"></use></mask><use fill="#000" fill-rule="nonzero" xlink:href="#a"></use><path d="M0 0h24v24H0z" mask="url(#b)" fill="#000"></path></g>
		</symbol>
	
		<symbol id="cms-icon-reset" viewBox="0 0 24 24">
			<title>Resources/icons/reset</title><defs><path d="M17.658 6.347a1 1 0 1 1 1.414-1.414c3.905 3.906 3.904 10.237-.001 14.141-3.905 3.905-10.237 3.905-14.142 0C1.024 15.17 1.023 8.84 4.928 4.933a1 1 0 1 1 1.414 1.414 8 8 0 1 0 11.316 0zM11.005 1a1 1 0 0 1 2 0v10a1 1 0 1 1-2 0V1z" id="a"></path></defs><g fill="none" fill-rule="evenodd"><mask id="b" fill="#fff"><use xlink:href="#a"></use></mask><use fill="#000" fill-rule="nonzero" xlink:href="#a"></use><path d="M0 0h24v24H0z" transform="translate(0 -1)" mask="url(#b)" fill="#000"></path></g>
		</symbol>
	
		<symbol id="cms-icon-search" viewBox="0 0 24 24">
			<title>Resources/icons/search</title><defs><path d="M17.176 15.762l4.531 4.53a1 1 0 0 1-1.414 1.415l-4.531-4.531a8.5 8.5 0 1 1 1.414-1.414zm-2.016-.73a6.5 6.5 0 1 0-.128.128 1.013 1.013 0 0 1 .128-.128z" id="a"></path></defs><g fill="none" fill-rule="evenodd"><mask id="b" fill="#fff"><use xlink:href="#a"></use></mask><use fill="#000" fill-rule="nonzero" xlink:href="#a"></use><path d="M0 0h24v24H0z" mask="url(#b)" fill="#000"></path></g>
		</symbol>
	
		<symbol id="cms-icon-shell" viewBox="0 0 24 24">
			<title>Resources/icons/shell</title><defs><path d="M20.913 2H3.087C2.487 2 2 2.487 2 3.087v17.826A1.088 1.088 0 0 0 3.087 22h17.826A1.088 1.088 0 0 0 22 20.913V3.087A1.088 1.088 0 0 0 20.913 2zM6 14.617L8.6 12 6 9.407 7.411 8l3.294 3.308a.986.986 0 0 1 0 1.408L7.387 16 6 14.617zM15 18h-4v-2h3.975L15 18z" id="a"></path></defs><g fill="none" fill-rule="evenodd"><mask id="b" fill="#fff"><use xlink:href="#a"></use></mask><use fill="#000" xlink:href="#a"></use><path d="M0 0h24v24H0z" mask="url(#b)" fill="#000"></path></g>
		</symbol>
	
		<symbol id="cms-icon-shell-o" viewBox="0 0 24 24">
			<title>Resources/icons/shell-o</title><defs><path d="M4.274 5.587l6.233 6.231a.931.931 0 0 1 0 1.303l-6.233 6.231a.931.931 0 0 1-.678.371.933.933 0 0 1-.994-.994.93.93 0 0 1 .37-.677l5.58-5.582-5.58-5.58a.93.93 0 1 1 1.303-1.303zM19.67 17.214a.93.93 0 1 1 0 1.86h-7.722a.93.93 0 1 1 0-1.86h7.722z" id="a"></path></defs><g fill="none" fill-rule="evenodd"><mask id="b" fill="#fff"><use xlink:href="#a"></use></mask><use fill="#000" xlink:href="#a"></use><path d="M0 0h24v24H0z" transform="translate(0 -1)" mask="url(#b)" fill="#000"></path></g>
		</symbol>
	
		<symbol id="cms-icon-text" viewBox="0 0 24 24">
			<title>Resources/icons/text</title><defs><path d="M13 5v14h2a1 1 0 0 1 0 2H9a1 1 0 0 1 0-2h2V5H5v2a1 1 0 1 1-2 0V4a1 1 0 0 1 1-1h16a1 1 0 0 1 1 1v3a1 1 0 0 1-2 0V5h-6z" id="a"></path></defs><g fill="none" fill-rule="evenodd"><mask id="b" fill="#fff"><use xlink:href="#a"></use></mask><use fill="#000" fill-rule="nonzero" xlink:href="#a"></use><path d="M0 0h24v24H0z" mask="url(#b)" fill="#000"></path></g>
		</symbol>
	
		<symbol id="cms-icon-trash" viewBox="0 0 24 24">
			<title>Resources/icons/trash</title><defs><path d="M17 5h4a1 1 0 0 1 0 2h-1v13a3 3 0 0 1-3 3H7a3 3 0 0 1-3-3V7H3a1 1 0 1 1 0-2h4V4a3 3 0 0 1 3-3h4a3 3 0 0 1 3 3v1zm-2 0V4a1 1 0 0 0-1-1h-4a1 1 0 0 0-1 1v1h6zm3 2H6v13a1 1 0 0 0 1 1h10a1 1 0 0 0 1-1V7zm-9 4a1 1 0 0 1 2 0v6a1 1 0 0 1-2 0v-6zm4 0a1 1 0 0 1 2 0v6a1 1 0 0 1-2 0v-6z" id="a"></path></defs><g fill="none" fill-rule="evenodd"><mask id="b" fill="#fff"><use xlink:href="#a"></use></mask><use fill="#000" fill-rule="nonzero" xlink:href="#a"></use><path d="M0 0h24v24H0z" mask="url(#b)" fill="#000"></path></g>
		</symbol>
	
		<symbol id="cms-icon-triangle-down" viewBox="0 0 24 24">
			<title>Resources/icons/triangle-down</title><defs><path d="M18.737 8.324a1 1 0 0 1-.03 1.383l-5.835 5.835L12.5 16l-.076-.094a1 1 0 0 1-1.131-.199l-6-6A1 1 0 0 1 6 8h13l-.263.324z" id="a"></path></defs><g fill="none" fill-rule="evenodd"><mask id="b" fill="#fff"><use xlink:href="#a"></use></mask><use fill="#000" fill-rule="nonzero" xlink:href="#a"></use><path d="M0 0h24v24H0z" mask="url(#b)" fill="#000"></path></g>
		</symbol>
	
		<symbol id="cms-icon-triangle-right" viewBox="0 0 24 24">
			<title>Resources/icons/triangle-right</title><defs><path d="M18.737 8.324a1 1 0 0 1-.03 1.383l-5.835 5.835L12.5 16l-.076-.094a1 1 0 0 1-1.131-.199l-6-6A1 1 0 0 1 6 8h13l-.263.324z" id="a"></path></defs><g fill="none" fill-rule="evenodd"><mask id="b" fill="#fff"><use xlink:href="#a"></use></mask><use fill="#000" fill-rule="nonzero" transform="rotate(-90 12 12)" xlink:href="#a"></use><path d="M0 0h24v24H0z" mask="url(#b)" fill="#000"></path></g>
		</symbol>
	
		<symbol id="cms-icon-undo" viewBox="0 0 24 24">
			<path d="M14.2 5c-.1 0-.4 0-.4.4v4.4c0 .2.2.4.4.4s.4-.2.6-.4L16 8.6c.8.9 1.2 2.1 1.2 3.4 0 2.9-2.3 5.2-5.2 5.2-1.4 0-2.6-.5-3.5-1.4-1-1-1.7-2.3-1.7-3.9H5c0 2 .9 3.8 2.2 5.1 1.3 1.3 2.9 2 4.8 2 3.9 0 7-3.1 7-7 0-1.8-.7-3.4-1.8-4.6l1.3-1.3c.2-.2.5-.4.5-.7 0-.2-.2-.4-.4-.4h-4.4z"></path>
		</symbol>
	
		<symbol id="cms-icon-video" viewBox="0 0 24 24">
			<title>Resources/icons/video</title><defs><path d="M16.583 14.115v2.802a2.75 2.75 0 0 1-2.75 2.75H3.75A2.75 2.75 0 0 1 1 16.917V7.75A2.75 2.75 0 0 1 3.75 5h10.083a2.75 2.75 0 0 1 2.75 2.75v2.802l4.968-3.548A.917.917 0 0 1 23 7.75v9.167a.917.917 0 0 1-1.45.746l-4.967-3.548zM3.75 6.833a.917.917 0 0 0-.917.917v9.167c0 .506.41.916.917.916h10.083c.507 0 .917-.41.917-.916V7.75a.917.917 0 0 0-.917-.917H3.75zm13.494 5.5l3.923 2.802V9.531l-3.923 2.802z" id="a"></path></defs><g fill="none" fill-rule="evenodd"><mask id="b" fill="#fff"><use xlink:href="#a"></use></mask><use fill="#000" fill-rule="nonzero" xlink:href="#a"></use><path d="M0 0h24v24H0z" mask="url(#b)" fill="#000"></path></g>
		</symbol>
	
		<symbol id="cms-icon-workflow" viewBox="0 0 24 24">
			<title>Resources/icons/workflow</title><defs><path d="M17 21a1 1 0 0 1-2 0v-2a3 3 0 0 0-3-3H5a3 3 0 0 0-3 3v2a1 1 0 0 1-2 0v-2a5 5 0 0 1 5-5h7a5 5 0 0 1 5 5v2zm-8.5-9a5 5 0 1 1 0-10 5 5 0 0 1 0 10zm0-2a3 3 0 1 0 0-6 3 3 0 0 0 0 6zm9.207.293L19 11.586l3.293-3.293a1 1 0 0 1 1.414 1.414l-4 4a1 1 0 0 1-1.414 0l-2-2a1 1 0 0 1 1.414-1.414z" id="a"></path></defs><g fill="none" fill-rule="evenodd"><mask id="b" fill="#fff"><use xlink:href="#a"></use></mask><use fill="#000" fill-rule="nonzero" xlink:href="#a"></use><path d="M0 0h24v24H0z" mask="url(#b)" fill="#000"></path></g>
		</symbol>
	
		<symbol id="cms-icon-wrench" viewBox="0 0 24 24">
			<title>Resources/icons/wrench</title><defs><path d="M22.547 4.18a.572.572 0 0 0-.753-.29.579.579 0 0 0-.161.11c-.004.005-.007.005-.012.008l-2.614 2.615c-.643.642-.815.815-1.629 0-.392-.392-.587-.717-.55-.917.036-.197.286-.447.55-.712l2.615-2.615c.006-.006.007-.011.012-.017a.571.571 0 0 0-.186-.908 5.389 5.389 0 0 0-5.955 1.109 5.396 5.396 0 0 0-1.26 5.582L1.59 18.817c-.43.43-.642 1.073-.58 1.762.058.632.333 1.235.756 1.658.474.474 1.196.763 1.902.763.56 0 1.11-.18 1.523-.594L15.834 11.39a5.387 5.387 0 0 0 5.6-1.253 5.384 5.384 0 0 0 1.113-5.956zm-2.2 5.235a4.095 4.095 0 0 1-4.55.837.553.553 0 0 0-.623.12L4.631 21.287c-.424.424-1.315.261-1.746-.17a1.532 1.532 0 0 1-.412-.924c-.031-.338.056-.639.235-.817l10.91-10.569a.552.552 0 0 0 .12-.62 4.102 4.102 0 0 1 .845-4.532c.98-.98 2.4-1.378 3.727-1.101L16.42 4.444c-.363.364-.74.74-.836 1.269-.143.778.41 1.438.837 1.865.634.635 1.165.858 1.616.858.664 0 1.149-.486 1.52-.858l1.89-1.89a4.1 4.1 0 0 1-1.1 3.727z" id="a"></path></defs><g fill="none" fill-rule="evenodd"><mask id="b" fill="#fff"><use xlink:href="#a"></use></mask><use fill="#000" xlink:href="#a"></use><path d="M0 0h24v24H0z" mask="url(#b)" fill="#000"></path></g>
		</symbol>
	
		<symbol id="cms-icon-x" viewBox="0 0 24 24">
			<path d="M13.4 12l5.3 5.3c.4.4.4 1 0 1.4-.4.4-1 .4-1.4 0L12 13.4l-5.3 5.3c-.4.4-1 .4-1.4 0-.4-.4-.4-1 0-1.4l5.3-5.3-5.3-5.3c-.4-.4-.4-1 0-1.4.4-.4 1-.4 1.4 0l5.3 5.3 5.3-5.3c.4-.4 1-.4 1.4 0 .4.4.4 1 0 1.4L13.4 12z"></path>
		</symbol>
	
</svg>
