<?xml version="1.0" encoding="UTF-8"?>
<svg width="24px" height="24px" viewBox="0 0 24 24" version="1.1" xmlns="http://www.w3.org/2000/svg" xmlns:xlink="http://www.w3.org/1999/xlink">
    <!-- Generator: Sketch 48.2 (47327) - http://www.bohemiancoding.com/sketch -->
    <title>Resources/icons/alert-triangle</title>
    <desc>Created with Sketch.</desc>
    <defs>
        <path d="M9.49325983,3.38590324 C10.0162148,2.52374136 10.9464701,2 11.9495248,2 C12.9525794,2 13.8828347,2.52374136 14.4057897,3.38590324 L22.5154438,16.924573 C23.0253149,17.8075535 23.0283592,18.8947755 22.5234407,19.7805974 C22.0185222,20.6664193 21.0814792,21.2177916 20.0514088,21.2290556 L3.83712787,21.2289978 C2.81757035,21.2177916 1.88052733,20.6664193 1.37560885,19.7805974 C0.870690371,18.8947755 0.873734595,17.8075535 1.3913758,16.9113625 L9.49325983,3.38590324 Z M3.04031289,17.8812274 C2.87035585,18.1755542 2.86934111,18.5379616 3.03764727,18.8332355 C3.20595343,19.1285095 3.5183011,19.3123003 3.84764074,19.3159779 L20.0408959,19.3160356 C20.3807484,19.3123003 20.6930961,19.1285095 20.8614023,18.8332355 C21.0297084,18.5379616 21.0286937,18.1755542 20.8665067,17.8944378 L12.7673655,4.37352871 C12.5939614,4.08765815 12.2838763,3.91307769 11.9495248,3.91307769 C11.6159063,3.91307769 11.306448,4.08689343 11.1328266,4.37164995 L3.04031289,17.8812274 Z M10.9929859,8.79405056 C10.9929859,8.26576874 11.421243,7.83751171 11.9495248,7.83751171 C12.4778066,7.83751171 12.9060636,8.26576874 12.9060636,8.79405056 L12.9060636,12.6202059 C12.9060636,13.1484878 12.4778066,13.5767448 11.9495248,13.5767448 C11.421243,13.5767448 10.9929859,13.1484878 10.9929859,12.6202059 L10.9929859,8.79405056 Z M11.2731497,16.1661976 C10.899598,15.7926459 10.899598,15.186999 11.2731497,14.8134474 C11.6467013,14.4398957 12.2523482,14.4398957 12.6258999,14.8134474 C12.9994515,15.186999 12.9994515,15.7926459 12.6258999,16.1661976 C12.2523482,16.5397492 11.6467013,16.5397492 11.2731497,16.1661976 Z" id="path-1"></path>
    </defs>
    <g id="Symbols" stroke="none" stroke-width="1" fill="none" fill-rule="evenodd">
        <g id="Resources/icons/alert-triangle">
            <mask id="mask-2" fill="white">
                <use xlink:href="#path-1"></use>
            </mask>
            <use id="Combined-Shape" fill="#000000" fill-rule="nonzero" xlink:href="#path-1"></use>
            <g id="Resources/Colour/black" mask="url(#mask-2)" fill="#000000">
                <rect id="Rectangle" x="0" y="0" width="24" height="24"></rect>
            </g>
        </g>
    </g>
</svg>