<?xml version="1.0" encoding="UTF-8"?>
<svg width="24px" height="24px" viewBox="0 0 24 24" version="1.1" xmlns="http://www.w3.org/2000/svg" xmlns:xlink="http://www.w3.org/1999/xlink">
    <!-- Generator: Sketch 48.2 (47327) - http://www.bohemiancoding.com/sketch -->
    <title>Resources/icons/cog</title>
    <desc>Created with Sketch.</desc>
    <defs>
        <path d="M21.3215669,10.3059672 L18.7577677,9.79293407 C18.6444878,9.44526752 18.5051645,9.1080343 18.3398012,8.78383441 L19.7903341,6.60806846 C20.014294,6.27343524 19.9687207,5.82680206 19.6848641,5.54296882 L18.4582978,4.31640256 C18.1731413,4.03124599 17.7265314,3.986976 17.3931982,4.2109326 L15.2174323,5.66146545 C14.8919124,5.49610217 14.5546658,5.35677888 14.2083326,5.24349892 L13.6952994,2.67969977 C13.6158728,2.28386657 13.2695329,2 12.8671664,2 L11.1341003,2 C10.7317671,2 10.3854005,2.28385324 10.3059672,2.67839977 L9.79293407,5.24479892 C9.44526752,5.35938221 9.1106343,5.50130883 8.7890344,5.66536544 L6.60803513,4.2122326 C6.27340191,3.98827267 5.82810206,4.03384599 5.54293549,4.31770256 L4.31636923,5.54426882 C4.03251599,5.82812206 3.98694267,6.27473524 4.21089926,6.60936846 L5.66403211,8.79036774 C5.49996883,9.11198096 5.35804221,9.44663418 5.24346559,9.7942674 L2.67706644,10.3073006 C2.28383324,10.3841239 2,10.7304671 2,11.1328336 L2,12.8658997 C2,13.2682329 2.28385324,13.6145995 2.67839977,13.6940328 L5.24479892,14.2070659 C5.35938221,14.5547325 5.50130883,14.8893657 5.66536544,15.2109656 L4.2122326,17.3919649 C3.98827267,17.7265981 4.03384599,18.1732313 4.31770256,18.4570645 L5.54426882,19.6836308 C5.70702876,19.8463907 5.92316869,19.9310274 6.14063529,19.9310274 C6.30339523,19.9310274 6.46615518,19.884154 6.60936846,19.7891007 L8.79036774,18.3359679 C9.11198096,18.5000312 9.44663418,18.6419578 9.7942674,18.7565344 L10.3073006,21.3229336 C10.3841239,21.7161668 10.7304671,22 11.1328336,22 L12.8658997,22 C13.2682329,22 13.6145995,21.7161468 13.6940328,21.3216002 L14.2070659,18.7552011 C14.5547325,18.6406178 14.8893657,18.4986912 15.2109656,18.3346346 L17.3919649,19.7877674 C17.5351948,19.8828207 17.6979548,19.929694 17.860698,19.929694 C18.0781446,19.929694 18.2942979,19.8450574 18.4570645,19.6822974 L19.6836308,18.4557312 C19.967484,18.1718779 20.0130573,17.7252648 19.7891007,17.3906315 L18.3359679,15.2096323 C18.5000312,14.888019 18.6419578,14.5533658 18.7565344,14.2057326 L21.3229336,13.6926994 C21.7161668,13.6158761 22,13.2695329 22,12.8671664 L22,11.1341003 C22,10.7304671 21.7161468,10.3841005 21.3216002,10.3059672 L21.3215669,10.3059672 Z M12,15.6842105 C9.96520048,15.6842105 8.31578947,14.0349796 8.31578947,12 C8.31578947,9.96502035 9.96502035,8.31578947 12,8.31578947 C14.0349796,8.31578947 15.6842105,9.96502035 15.6842105,12 C15.6842105,14.0349796 14.0349796,15.6842105 12,15.6842105 Z" id="path-1"></path>
    </defs>
    <g id="Symbols" stroke="none" stroke-width="1" fill="none" fill-rule="evenodd">
        <g id="Resources/icons/cog">
            <mask id="mask-2" fill="white">
                <use xlink:href="#path-1"></use>
            </mask>
            <use id="Page-1" fill="#000000" xlink:href="#path-1"></use>
            <g id="Resources/Colour/black" mask="url(#mask-2)" fill="#000000">
                <rect id="Rectangle" x="0" y="0" width="24" height="24"></rect>
            </g>
        </g>
    </g>
</svg>