<?xml version="1.0" encoding="UTF-8"?>
<svg width="24px" height="24px" viewBox="0 0 24 24" version="1.1" xmlns="http://www.w3.org/2000/svg" xmlns:xlink="http://www.w3.org/1999/xlink">
    <!-- Generator: Sketch 48.2 (47327) - http://www.bohemiancoding.com/sketch -->
    <title>Resources/icons/dashboard</title>
    <desc>Created with Sketch.</desc>
    <defs>
        <path d="M12,24 C5.3832,24 0,18.6168 0,12 C0,5.3832 5.3832,0 12,0 C18.6168,0 24,5.3832 24,12 C24,18.6168 18.6168,24 12,24 Z M12,1.5 C6.21,1.5 1.5,6.21 1.5,12 C1.5,17.79 6.21,22.5 12,22.5 C17.79,22.5 22.5,17.79 22.5,12 C22.5,6.21 17.79,1.5 12,1.5 Z M5.25,12.75 L3.75,12.75 C3.335616,12.75 3,12.414384 3,12 C3,11.585616 3.335616,11.25 3.75,11.25 L5.25,11.25 C5.664384,11.25 6,11.585616 6,12 C6,12.414384 5.664384,12.75 5.25,12.75 Z M20.25,12.75 L18.75,12.75 C18.335616,12.75 18,12.414384 18,12 C18,11.585616 18.335616,11.25 18.75,11.25 L20.25,11.25 C20.664384,11.25 21,11.585616 21,12 C21,12.414384 20.664384,12.75 20.25,12.75 Z M12,12.75 C11.8078128,12.75 11.615616,12.6768744 11.469384,12.5306256 C11.175936,12.2371776 11.175936,11.7637536 11.469384,11.4703056 L17.254584,5.6851056 C17.548032,5.3916576 18.021456,5.3916576 18.314904,5.6851056 C18.608352,5.9785536 18.608352,6.4519776 18.314904,6.7454256 L12.529704,12.5306256 C12.3843912,12.6768744 12.192216,12.75 12.000024,12.75 L12,12.75 Z M12,6 C11.585616,6 11.25,5.664384 11.25,5.25 L11.25,3.75 C11.25,3.335616 11.585616,3 12,3 C12.414384,3 12.75,3.335616 12.75,3.75 L12.75,5.25 C12.75,5.664384 12.414384,6 12,6 Z M7.22712,7.97712 C7.0349328,7.97712 6.842736,7.9039944 6.696504,7.7577456 L5.636184,6.6964896 C5.342736,6.4030416 5.342736,5.9296176 5.636184,5.6361696 C5.929632,5.3427216 6.403056,5.3427216 6.696504,5.6361696 L7.75776,6.6974256 C8.051208,6.9908736 8.051208,7.4642976 7.75776,7.7577456 C7.6105728,7.9039968 7.419312,7.97712 7.227144,7.97712 L7.22712,7.97712 Z" id="path-1"></path>
    </defs>
    <g id="Symbols" stroke="none" stroke-width="1" fill="none" fill-rule="evenodd">
        <g id="Resources/icons/dashboard">
            <mask id="mask-2" fill="white">
                <use xlink:href="#path-1"></use>
            </mask>
            <use id="Combined-Shape" fill="#000000" xlink:href="#path-1"></use>
            <g id="Resources/Colour/black" mask="url(#mask-2)" fill="#000000">
                <rect id="Rectangle" x="0" y="0" width="24" height="24"></rect>
            </g>
        </g>
    </g>
</svg>