<?xml version="1.0" encoding="UTF-8"?>
<svg width="24px" height="24px" viewBox="0 0 24 24" version="1.1" xmlns="http://www.w3.org/2000/svg" xmlns:xlink="http://www.w3.org/1999/xlink">
    <!-- Generator: Sketch 48.2 (47327) - http://www.bohemiancoding.com/sketch -->
    <title>Resources/icons/doctor</title>
    <desc>Created with Sketch.</desc>
    <defs>
        <path d="M6.10151221,2.02542889 L6.10151221,0.500076268 L2.81578947,0.5 L2.81578947,6.24607958 C2.81578947,7.58373756 3.30783311,8.8768044 4.20203701,9.88658783 C5.09520627,10.8955577 6.3309153,11.5529593 7.67864878,11.7366626 L7.67864878,18.0417076 C7.67864878,20.0040229 8.74359231,21.8164469 10.4724055,22.7975031 C12.2012186,23.7785593 14.331054,23.7786608 16.0599189,22.7975031 C17.7876715,21.8163452 18.8526409,20.0040738 18.8526409,18.0417076 L18.8526409,14.6355952 C20.2631246,14.2532656 21.1694337,12.9056674 20.9734232,11.4806576 C20.7774102,10.0555969 19.5396862,8.99301084 18.076721,8.99301084 C16.6147127,8.99301084 15.3768569,10.0555969 15.1810533,11.4806576 C14.9852498,12.9057183 15.8903432,14.2532402 17.3008269,14.6355952 L17.3008269,18.0417076 C17.3008269,19.4588111 16.5319166,20.767767 15.2841024,21.4768017 C14.0352794,22.1848704 12.4975881,22.1848704 11.2485323,21.4768017 C9.99970939,20.7677416 9.23079906,19.4588873 9.23079906,18.0417076 L9.23079906,11.7366626 C10.5746009,11.5469875 11.8032228,10.8876005 12.6924087,9.87863057 C13.5805342,8.86966066 14.0695515,7.57966995 14.067534,6.24600331 L14.067534,0.5 L10.7828459,0.5 L10.7828459,2.02535262 L12.5156424,2.02535262 L12.5156424,6.24600331 C12.5156424,7.67602139 11.7396707,8.99773944 10.4787167,9.71389249 C9.21877149,10.4289015 7.66581938,10.4289015 6.4048654,9.71389249 C5.14492019,8.99789197 4.36793975,7.67612308 4.36793975,6.24600331 L4.36793975,2.02535262 L6.10151221,2.02542889 Z M16.1509001,11.4102362 C16.1509001,10.9205595 16.4466786,10.4782355 16.8997023,10.2905864 C17.3527489,10.1029349 17.8736897,10.2065892 18.2203887,10.5532906 C18.5670878,10.899992 18.6707589,11.421857 18.4830894,11.8748869 C18.2954405,12.3279396 17.8540169,12.622807 17.3634546,12.622807 C16.693275,12.622807 16.1508772,12.0804019 16.1508772,11.4102133 L16.1509001,11.4102362 Z" id="path-1"></path>
    </defs>
    <g id="Symbols" stroke="none" stroke-width="1" fill="none" fill-rule="evenodd">
        <g id="Resources/icons/doctor">
            <mask id="mask-2" fill="white">
                <use xlink:href="#path-1"></use>
            </mask>
            <use id="Page-1" fill="#000000" xlink:href="#path-1"></use>
            <g id="Resources/Colour/black" mask="url(#mask-2)" fill="#000000">
                <g transform="translate(0.000000, -1.000000)" id="Rectangle">
                    <rect x="0" y="0" width="24" height="24"></rect>
                </g>
            </g>
        </g>
    </g>
</svg>