<?xml version="1.0" encoding="UTF-8"?>
<svg width="24px" height="24px" viewBox="0 0 24 24" version="1.1" xmlns="http://www.w3.org/2000/svg" xmlns:xlink="http://www.w3.org/1999/xlink">
    <!-- Generator: Sketch 48.2 (47327) - http://www.bohemiancoding.com/sketch -->
    <title>Resources/icons/folder</title>
    <desc>Created with Sketch.</desc>
    <defs>
        <path d="M8.85761444,5 L4.88888889,5 C4.39796911,5 4,5.39175084 4,5.875 L4,18.125 C4,18.6082492 4.39796911,19 4.88888889,19 L19.1111111,19 C19.6020309,19 20,18.6082492 20,18.125 L20,8.5 C20,8.01675084 19.6020309,7.625 19.1111111,7.625 L11.1111111,7.625 C10.8139083,7.625 10.5363693,7.47878651 10.3715108,7.23536267 L8.85761444,5 Z M11.5774398,5.7 L19.2727273,5.7 C20.7789584,5.7 22,6.90883118 22,8.4 L22,18.3 C22,19.7911688 20.7789584,21 19.2727273,21 L4.72727273,21 C3.22104159,21 2,19.7911688 2,18.3 L2,5.7 C2,4.20883118 3.22104159,3 4.72727273,3 L9.27272727,3 C9.57668472,3 9.86053138,3.15039102 10.0291366,3.40076982 L11.5774398,5.7 Z" id="path-1"></path>
    </defs>
    <g id="Symbols" stroke="none" stroke-width="1" fill="none" fill-rule="evenodd">
        <g id="Resources/icons/folder">
            <mask id="mask-2" fill="white">
                <use xlink:href="#path-1"></use>
            </mask>
            <use id="Shape" fill="#000000" fill-rule="nonzero" xlink:href="#path-1"></use>
            <g id="Resources/Colour/black" mask="url(#mask-2)" fill="#000000">
                <rect id="Rectangle" x="0" y="0" width="24" height="24"></rect>
            </g>
        </g>
    </g>
</svg>