<?xml version="1.0" encoding="UTF-8"?>
<svg width="24px" height="24px" viewBox="0 0 24 24" version="1.1" xmlns="http://www.w3.org/2000/svg" xmlns:xlink="http://www.w3.org/1999/xlink">
    <!-- Generator: Sketch 48.2 (47327) - http://www.bohemiancoding.com/sketch -->
    <title>Resources/icons/help</title>
    <desc>Created with Sketch.</desc>
    <defs>
        <path d="M12,24 C5.36985875,24 0,18.6301413 0,12 C0,5.36985875 5.36985875,-8.8817842e-16 12,-8.8817842e-16 C18.6301413,-8.8817842e-16 24,5.36985875 24,12 C24,18.6301413 18.6301413,24 12,24 Z M12,14.608651 C11.4906266,14.608651 11.0752117,14.2074795 11.0752117,13.7156109 L11.0752117,12.4214172 C11.0752117,11.9295308 11.4906451,11.5283772 12,11.5283772 C13.0168972,11.5283772 13.8025973,10.7242839 13.8025973,9.78766344 C13.8025973,8.80567657 12.969918,8.04694972 12,8.04694972 C10.9831028,8.04694972 10.1974027,8.85104301 10.1974027,9.78766344 C10.1974027,10.2795499 9.78196927,10.6807035 9.27261438,10.6807035 C8.76324099,10.6807035 8.34782609,10.2795321 8.34782609,9.78766344 C8.34782609,7.8236897 10.0131848,6.26086957 12,6.26086957 C14.0337944,6.26086957 15.6521739,7.86905614 15.6521739,9.78766344 C15.6521739,11.4394304 14.4961886,12.8243569 12.9247883,13.2255105 L12.9247883,13.717397 C12.9247883,14.207542 12.5093549,14.6086957 12,14.6086957 L12,14.608651 Z M12.5206967,17.7391304 C12.2600825,17.7391304 11.9994683,17.6331434 11.791811,17.4190943 C11.5841328,17.2071202 11.4782609,16.9411151 11.4782609,16.6751312 C11.4782609,16.4091474 11.5821,16.143121 11.791811,15.9311681 C12.1562643,15.5591759 12.8872244,15.5591759 13.2516673,15.9311681 C13.4593455,16.1431422 13.5652174,16.4091474 13.5652174,16.6751312 C13.5652174,16.9411151 13.4613783,17.2071415 13.2516673,17.4190943 C13.0419563,17.6331434 12.7813421,17.7391304 12.5207488,17.7391304 L12.5206967,17.7391304 Z M12,1.86777696 C6.39666913,1.86777696 1.86777696,6.39676252 1.86777696,12 C1.86777696,17.6032375 6.44420405,22.132223 12,22.132223 C17.6033309,22.132223 22.132223,17.5557959 22.132223,12 C22.132223,6.39666913 17.6032375,1.86777696 12,1.86777696 Z" id="path-1"></path>
    </defs>
    <g id="Symbols" stroke="none" stroke-width="1" fill="none" fill-rule="evenodd">
        <g id="Resources/icons/help">
            <mask id="mask-2" fill="white">
                <use xlink:href="#path-1"></use>
            </mask>
            <use id="Combined-Shape" fill="#000000" xlink:href="#path-1"></use>
            <g id="Resources/Colour/black" mask="url(#mask-2)" fill="#000000">
                <rect id="Rectangle" x="0" y="0" width="24" height="24"></rect>
            </g>
        </g>
    </g>
</svg>