<?xml version="1.0" encoding="utf-8"?>
<!-- Generator: Adobe Illustrator 19.1.0, SVG Export Plug-In . SVG Version: 6.00 Build 0)  -->
<svg version="1.1" id="Layer_1" xmlns="http://www.w3.org/2000/svg" xmlns:xlink="http://www.w3.org/1999/xlink" x="0px" y="0px"
	 viewBox="0 0 24 24" enable-background="new 0 0 24 24" xml:space="preserve">
<g>
	<path id="path-1" fill="#010101" d="M20,12.6V5c0-0.6-0.4-1-1-1H5C4.4,4,4,4.4,4,5v14c0,0.4,0.3,0.8,0.6,0.9L15.3,9.3
		c0.4-0.4,1-0.4,1.4,0L20,12.6z M20,15.4l-4-4L7.4,20H19c0.6,0,1-0.4,1-1V15.4z M5,2h14c1.7,0,3,1.3,3,3v14c0,1.7-1.3,3-3,3H5
		c-1.7,0-3-1.3-3-3V5C2,3.3,3.3,2,5,2z M8.5,11C7.1,11,6,9.9,6,8.5S7.1,6,8.5,6S11,7.1,11,8.5S9.9,11,8.5,11z M8.5,9
		C8.8,9,9,8.8,9,8.5S8.8,8,8.5,8S8,8.2,8,8.5S8.2,9,8.5,9z"/>
</g>
</svg>
