<?xml version="1.0" encoding="UTF-8"?>
<svg width="24px" height="24px" viewBox="0 0 24 24" version="1.1" xmlns="http://www.w3.org/2000/svg" xmlns:xlink="http://www.w3.org/1999/xlink">
    <!-- Generator: Sketch 48.2 (47327) - http://www.bohemiancoding.com/sketch -->
    <title>Resources/icons/numbered list</title>
    <desc>Created with Sketch.</desc>
    <defs>
        <path d="M21.1663802,6.99919987 L11.1663802,6.99919987 C10.3327802,6.99919987 10.3327802,6.99919987 10.3327802,7.83279987 L10.3327802,8.66639987 C10.3327802,9.49999987 10.3327802,9.49999987 11.1663802,9.49999987 L21.1663802,9.49999987 C21.9999802,9.49999987 21.9999802,9.49999987 21.9999802,8.66639987 L21.9999802,7.83279987 C21.9999802,6.99919987 21.9999802,6.99919987 21.1663802,6.99919987 Z M21.1663802,14.4991999 L11.1663802,14.4991999 C10.3327802,14.4991999 10.3327802,14.4991999 10.3327802,15.3327999 L10.3327802,16.1663999 C10.3327802,16.9999999 10.3327802,16.9999999 11.1663802,16.9999999 L21.1663802,16.9999999 C21.9999802,16.9992179 21.9999802,16.9992179 21.9999802,16.1656199 L21.9999802,15.3320199 C21.9999802,14.4991999 21.9999802,14.4991999 21.1663802,14.4991999 Z M21.1663802,19.4991999 L11.1663802,19.4991999 C10.3327802,19.4991999 10.3327802,19.4991999 10.3327802,20.3327999 L10.3327802,21.1663999 C10.3327802,22 10.3327802,22 11.1663802,22 L21.1663802,22 C21.9999802,21.9992188 21.9999802,21.9992188 21.9999802,21.1656201 L21.9999802,20.3320201 C21.9999802,19.4991999 21.9999802,19.4991999 21.1663802,19.4991999 Z M21.1663802,1.99919987 L11.1663802,1.99919987 C10.3327802,1.99919987 10.3327802,1.99919987 10.3327802,2.83279987 L10.3327802,3.66639987 C10.3327802,4.49999987 10.3327802,4.49999987 11.1663802,4.49999987 L21.1663802,4.49999987 C21.9999802,4.49999987 21.9999802,4.49999987 21.9999802,3.66639987 L21.9999802,2.83279987 C21.9999802,1.99919987 21.9999802,1.99919987 21.1663802,1.99919987 Z M6.58358016,1.99919987 L3.24998016,1.99919987 L2.83358016,4.08279987 L4.49998016,4.08279987 L4.49998016,9.49919987 L6.58358016,9.49919987 L6.58358016,1.99919987 Z M4.91640016,14.3491999 C3.24999996,14.3491999 2,15.4655999 2,17.1327999 L3.83359996,17.1327999 C3.83359996,16.5491999 4.16720016,16.0163999 4.91720016,16.0163999 C5.59220016,16.0163999 5.95080016,16.4452999 5.94220016,16.9702999 C5.93829416,17.3116999 5.70470016,17.6288999 4.74220016,18.4366999 L2,20.7490999 L2,21.9990999 L7.83360016,21.9990999 L7.83360016,20.0990999 L5.60000016,20.0990999 L6.62110016,19.0740999 C7.55860016,18.1365999 7.83360016,17.5951999 7.83360016,16.7990999 C7.83360016,15.5326999 6.58360016,14.3490999 4.91640016,14.3490999 L4.91640016,14.3491999 Z" id="path-1"></path>
    </defs>
    <g id="Symbols" stroke="none" stroke-width="1" fill="none" fill-rule="evenodd">
        <g id="Resources/icons/numbered-list">
            <mask id="mask-2" fill="white">
                <use xlink:href="#path-1"></use>
            </mask>
            <use id="Page-1" fill="#000000" xlink:href="#path-1"></use>
            <g id="Resources/Colour/black" mask="url(#mask-2)" fill="#000000">
                <rect id="Rectangle" x="0" y="0" width="24" height="24"></rect>
            </g>
        </g>
    </g>
</svg>