<?xml version="1.0" encoding="UTF-8"?>
<svg width="24px" height="24px" viewBox="0 0 24 24" version="1.1" xmlns="http://www.w3.org/2000/svg" xmlns:xlink="http://www.w3.org/1999/xlink">
    <!-- Generator: Sketch 48.2 (47327) - http://www.bohemiancoding.com/sketch -->
    <title>Resources/icons/page</title>
    <desc>Created with Sketch.</desc>
    <defs>
        <path d="M19,10 L13,10 C12.4477153,10 12,9.55228475 12,9 L12,3 L6,3 C5.44771525,3 5,3.44771525 5,4 L5,20 C5,20.5522847 5.44771525,21 6,21 L18,21 C18.5522847,21 19,20.5522847 19,20 L19,10 L20,10 C20.5522847,10 21,9.55228475 21,9 C21,8.86192881 20.9720178,8.73039322 20.921415,8.61075487 C20.9736608,8.73749915 21,8.86739176 21,9 L21,20 C21,21.6568542 19.6568542,23 18,23 L6,23 C4.34314575,23 3,21.6568542 3,20 L3,4 C3,2.34314575 4.34314575,1 6,1 L13,1 C13.2652165,1 13.5195704,1.10535684 13.7071068,1.29289322 L20.7071068,8.29289322 C20.800875,8.38666141 20.8740983,8.49713398 20.9238795,8.61731657 Z M14,4.41421356 L14,8 L17.5857864,8 L14,4.41421356 Z" id="path-1"></path>
    </defs>
    <g id="Symbols" stroke="none" stroke-width="1" fill="none" fill-rule="evenodd">
        <g id="Resources/icons/page">
            <mask id="mask-2" fill="white">
                <use xlink:href="#path-1"></use>
            </mask>
            <use id="Combined-Shape" fill="#000000" fill-rule="nonzero" xlink:href="#path-1"></use>
            <g id="Resources/Colour/black" mask="url(#mask-2)" fill="#000000">
                <rect id="Rectangle" x="0" y="0" width="24" height="24"></rect>
            </g>
        </g>
    </g>
</svg>