<?xml version="1.0" encoding="utf-8"?>
<!-- Generator: Adobe Illustrator 19.1.0, SVG Export Plug-In . SVG Version: 6.00 Build 0)  -->
<svg version="1.1" id="Layer_1" xmlns="http://www.w3.org/2000/svg" xmlns:xlink="http://www.w3.org/1999/xlink" x="0px" y="0px"
	 viewBox="0 0 24 24" enable-background="new 0 0 24 24" xml:space="preserve">
<g>
	<path id="path-1" d="M5.4,5C5.2,5,5,5.2,5,5.4c0,0.2,0.3,0.4,0.5,0.7l1.3,1.3C5.7,8.6,5,10.2,5,12c0,3.9,3.1,7,7,7
		c1.9,0,3.5-0.7,4.8-1.9C18.1,15.8,19,14,19,12h-1.7c0,1.5-0.7,2.9-1.7,3.9c-0.9,0.9-2.2,1.4-3.5,1.4c-2.9,0-5.2-2.3-5.2-5.2
		c0-1.3,0.5-2.5,1.2-3.4l1.2,1.2c0.2,0.2,0.4,0.4,0.6,0.4c0.2,0,0.4-0.2,0.4-0.4V5.4C10.2,5,9.9,5,9.8,5H5.4z"/>
</g>
</svg>
