<?xml version="1.0" encoding="UTF-8"?>
<svg width="24px" height="24px" viewBox="0 0 24 24" version="1.1" xmlns="http://www.w3.org/2000/svg" xmlns:xlink="http://www.w3.org/1999/xlink">
    <!-- Generator: Sketch 48.2 (47327) - http://www.bohemiancoding.com/sketch -->
    <title>Resources/icons/shell-o</title>
    <desc>Created with Sketch.</desc>
    <defs>
        <path d="M4.27380733,5.58654457 L10.5070874,11.8183781 C10.861365,12.1799485 10.861365,12.7594937 10.5070874,13.1210362 L4.27378873,19.3524744 C4.11211923,19.5686725 3.86501977,19.7031149 3.59613493,19.7231003 C3.32724079,19.7412672 3.06380695,19.6431632 2.87304067,19.4523969 C2.68227903,19.261612 2.58235184,18.9981875 2.60233728,18.7293027 C2.62050417,18.4604318 2.75676513,18.2133463 2.97114931,18.0516489 L8.55237477,12.4704234 L2.97114931,6.88919794 C2.69499492,6.51855806 2.7313287,6.00077382 3.05835595,5.67193267 C3.38536926,5.34491006 3.90317675,5.30857163 4.27380733,5.58654457 Z M19.6696178,17.2140976 C20.1837742,17.2140976 20.599822,17.6301454 20.599822,18.1443019 C20.599822,18.6584583 20.1837882,19.0745061 19.6696178,19.0745061 L11.9479923,19.0745061 C11.4338359,19.0745061 11.0177881,18.6584583 11.0177881,18.1443019 C11.0177881,17.6301454 11.4338219,17.2140976 11.9479923,17.2140976 L19.6696178,17.2140976 Z" id="path-1"></path>
    </defs>
    <g id="Symbols" stroke="none" stroke-width="1" fill="none" fill-rule="evenodd">
        <g id="Resources/icons/shell-o">
            <mask id="mask-2" fill="white">
                <use xlink:href="#path-1"></use>
            </mask>
            <use id="Combined-Shape" fill="#000000" xlink:href="#path-1"></use>
            <g id="Resources/Colour/black" mask="url(#mask-2)" fill="#000000">
                <g transform="translate(0.000000, -1.000000)" id="Rectangle">
                    <rect x="0" y="0" width="24" height="24"></rect>
                </g>
            </g>
        </g>
    </g>
</svg>