<?xml version="1.0" encoding="utf-8"?>
<!-- Generator: Adobe Illustrator 19.1.0, SVG Export Plug-In . SVG Version: 6.00 Build 0)  -->
<svg version="1.1" id="Layer_1" xmlns="http://www.w3.org/2000/svg" xmlns:xlink="http://www.w3.org/1999/xlink" x="0px" y="0px"
	 viewBox="0 0 24 24" enable-background="new 0 0 24 24" xml:space="preserve">
<g>
	<path id="path-1" d="M14.2,5c-0.1,0-0.4,0-0.4,0.4v4.4c0,0.2,0.2,0.4,0.4,0.4c0.2,0,0.4-0.2,0.6-0.4L16,8.6
		c0.8,0.9,1.2,2.1,1.2,3.4c0,2.9-2.3,5.2-5.2,5.2c-1.4,0-2.6-0.5-3.5-1.4c-1-1-1.7-2.3-1.7-3.9H5c0,2,0.9,3.8,2.2,5.1
		C8.5,18.3,10.1,19,12,19c3.9,0,7-3.1,7-7c0-1.8-0.7-3.4-1.8-4.6l1.3-1.3C18.7,5.9,19,5.7,19,5.4C19,5.2,18.8,5,18.6,5H14.2z"/>
</g>
</svg>
