<?xml version="1.0" encoding="UTF-8"?>
<svg width="24px" height="24px" viewBox="0 0 24 24" version="1.1" xmlns="http://www.w3.org/2000/svg" xmlns:xlink="http://www.w3.org/1999/xlink">
    <!-- Generator: Sketch 48.2 (47327) - http://www.bohemiancoding.com/sketch -->
    <title>Resources/icons/video</title>
    <desc>Created with Sketch.</desc>
    <defs>
        <path d="M16.5833333,14.1145902 L16.5833333,16.9166667 C16.5833333,18.4354497 15.3521164,19.6666667 13.8333333,19.6666667 L3.75,19.6666667 C2.23121694,19.6666667 1,18.4354497 1,16.9166667 L1,7.75 C1,6.23121694 2.23121694,5 3.75,5 L13.8333333,5 C15.3521164,5 16.5833333,6.23121694 16.5833333,7.75 L16.5833333,10.5520765 L21.5505317,7.00407765 C22.1572444,6.57071139 23,7.00440849 23,7.75 L23,16.9166667 C23,17.6622582 22.1572444,18.0959553 21.5505317,17.662589 L16.5833333,14.1145902 Z M3.75,6.83333333 C3.24373898,6.83333333 2.83333333,7.24373898 2.83333333,7.75 L2.83333333,16.9166667 C2.83333333,17.4229277 3.24373898,17.8333333 3.75,17.8333333 L13.8333333,17.8333333 C14.3395944,17.8333333 14.75,17.4229277 14.75,16.9166667 L14.75,7.75 C14.75,7.24373898 14.3395944,6.83333333 13.8333333,6.83333333 L3.75,6.83333333 Z M17.2437596,12.3333333 L21.1666667,15.1354098 L21.1666667,9.53125688 L17.2437596,12.3333333 Z" id="path-1"></path>
    </defs>
    <g id="Symbols" stroke="none" stroke-width="1" fill="none" fill-rule="evenodd">
        <g id="Resources/icons/video">
            <mask id="mask-2" fill="white">
                <use xlink:href="#path-1"></use>
            </mask>
            <use id="Combined-Shape" fill="#000000" fill-rule="nonzero" xlink:href="#path-1"></use>
            <g id="Resources/Colour/black" mask="url(#mask-2)" fill="#000000">
                <rect id="Rectangle" x="0" y="0" width="24" height="24"></rect>
            </g>
        </g>
    </g>
</svg>