<?xml version="1.0" encoding="UTF-8"?>
<svg width="24px" height="24px" viewBox="0 0 24 24" version="1.1" xmlns="http://www.w3.org/2000/svg" xmlns:xlink="http://www.w3.org/1999/xlink">
    <!-- Generator: Sketch 48.2 (47327) - http://www.bohemiancoding.com/sketch -->
    <title>Resources/icons/wrench</title>
    <desc>Created with Sketch.</desc>
    <defs>
        <path d="M22.5469951,4.18040546 C22.4183875,3.89255551 22.0809461,3.76265605 21.7944452,3.89000897 C21.73205,3.91803066 21.6798448,3.95623849 21.6327314,4.00081756 C21.628911,4.00463899 21.6263651,4.00463899 21.6212701,4.00846043 L19.0070997,6.62330696 C18.3640455,7.26525594 18.1921579,7.43845957 17.3784874,6.62330696 C16.9863048,6.23102292 16.7914686,5.90623352 16.8284017,5.70626028 C16.8640571,5.5088401 17.1136314,5.25919798 17.3784874,4.99427339 L19.9926578,2.37942685 C19.9990241,2.37305888 20.0002987,2.36796254 20.0053904,2.36159457 C20.0474121,2.31701551 20.0843387,2.26606847 20.109804,2.20620692 C20.237137,1.91835697 20.1072581,1.58082184 19.8194826,1.4534624 C17.8101295,0.56315272 15.417493,1.01021502 13.8638879,2.56281988 C12.4058918,4.02119311 11.9233159,6.21959448 12.604542,8.145311 L1.59011454,18.8172889 C1.15972747,19.2477873 0.948331569,19.8897363 1.01075611,20.5787685 C1.0680563,21.2105118 1.34308938,21.8142464 1.76584859,22.2370824 C2.23952537,22.7108817 2.96153121,23 3.66821615,23 C4.22720103,23 4.77855806,22.8191372 5.1911468,22.4064711 L15.8336349,11.3891945 C17.7653077,12.0820742 19.9696275,11.6006255 21.433915,10.1358811 C22.9899322,8.5832762 23.4368789,6.18891214 22.5468321,4.18005005 L22.5469951,4.18040546 Z M20.3460908,9.4145809 C19.1578293,10.6029477 17.3304695,10.9403688 15.7973143,10.2519704 C15.5855172,10.157147 15.336794,10.2051735 15.1742296,10.3726545 L4.63134477,21.2859569 C4.2065086,21.7096012 3.31623455,21.5470288 2.88525138,21.1160137 C2.65867944,20.8894217 2.50476814,20.5446077 2.47274072,20.1924009 C2.4419553,19.8537503 2.52938449,19.5532775 2.70793106,19.3746835 L13.6177443,8.80627392 C13.7839779,8.64494986 13.8320033,8.39741522 13.7384177,8.18685409 C13.0611764,6.6573461 13.4010264,4.83597183 14.5831409,3.65375258 C15.5633187,2.6734879 16.9830854,2.27572629 18.3104266,2.55280696 L16.4190435,4.44435777 C16.0558033,4.8076301 15.6789768,5.18326056 15.5829575,5.71276868 C15.4401203,6.49107879 15.9930094,7.15113544 16.4202729,7.5784683 C17.0544221,8.21267375 17.5851442,8.43559302 18.0358293,8.43559302 C18.6995472,8.43559302 19.1846869,7.95037871 19.5565644,7.5784683 L21.4467181,5.688147 C21.7250068,7.01566888 21.3260447,8.43556149 20.3458701,9.41450208 L20.3460908,9.4145809 Z" id="path-1"></path>
    </defs>
    <g id="Symbols" stroke="none" stroke-width="1" fill="none" fill-rule="evenodd">
        <g id="Resources/icons/wrench">
            <mask id="mask-2" fill="white">
                <use xlink:href="#path-1"></use>
            </mask>
            <use id="Page-1" fill="#000000" xlink:href="#path-1"></use>
            <g id="Resources/Colour/black" mask="url(#mask-2)" fill="#000000">
                <rect id="Rectangle" x="0" y="0" width="24" height="24"></rect>
            </g>
        </g>
    </g>
</svg>